<svg xmlns="http://www.w3.org/2000/svg" data-name="Layer 1" viewBox="0 0 750 750" id="Femaledesignerdesigningmobilewebapp"><defs><clipPath id="a"><path fill="none" d="M577.76 274.46c-63.9-19.4-119-46.83-181.43-122.91S166.12 98.87 117.35 213s-13.66 219.48 44.87 239 83.64 38.61 116 113.46c25.92 60.06 170 89 214.68 31.06C574.53 490.6 576.79 532 615.81 453s27.59-158.62-38.05-178.54Z"></path></clipPath></defs><path fill="#e8eefe" d="M577.76 274.46c-63.9-19.4-119-46.83-181.43-122.91S166.12 98.87 117.35 213s-13.66 219.48 44.87 239 83.64 38.61 116 113.46c25.92 60.06 170 89 214.68 31.06C574.53 490.6 576.79 532 615.81 453s27.59-158.62-38.05-178.54Z" class="coloreaf5f8 svgShape"></path><path fill="#e8eefe" d="M538.4 164.86c-43.42-49.07-59.85-63.73-107.85-53.37s30 93.64 109.5 134.49 51.51-21.05-1.65-81.12Z" class="coloreaf5f8 svgShape"></path><g clip-path="url(#a)" fill="#e8eefe" class="color000000 svgShape"><path fill="#e8eefe" d="M123.74 245.92V226.3h32.55v-93.81h8.98v93.81h35.07v19.62h18.78v393.34H83.66V245.92h40.08z" class="coloreaf5f8 svgShape"></path><path fill="#9bb4f5" d="M83.66 245.92h18.78v353.82H83.66z" class="color9bcef5 svgShape"></path><path fill="#e8eefe" d="M151.39 339.62h135.46v299.64H151.39z" class="coloreaf5f8 svgShape"></path><path fill="#9bb4f5" d="M151.39 339.62h18.78v299.64h-18.78z" class="color9bcef5 svgShape"></path><path fill="#cad6f6" d="M248.51 352.38h19.44v8.07h-19.44zM215.78 352.38h19.44v8.07h-19.44zM248.51 381.76h19.44v8.07h-19.44zM215.78 381.76h19.44v8.07h-19.44zM183.06 381.76h19.44v8.07h-19.44zM248.51 411.13h19.44v8.07h-19.44zM183.06 411.13h19.44v8.07h-19.44zM215.78 425.82h19.44v8.07h-19.44zM248.51 440.51h19.44v8.07h-19.44zM215.78 455.19h19.44v8.07h-19.44zM248.51 469.88h19.44v8.07h-19.44zM183.06 469.88h19.44v8.07h-19.44zM248.51 497.03h19.44v8.07h-19.44zM215.78 497.03h19.44v8.07h-19.44zM248.51 526.4h19.44v8.07h-19.44zM215.78 526.4h19.44v8.07h-19.44zM183.06 526.4h19.44v8.07h-19.44zM248.51 555.77h19.44v8.07h-19.44zM183.06 555.77h19.44v8.07h-19.44zM215.78 570.46h19.44v8.07h-19.44zM183.06 570.46h19.44v8.07h-19.44zM248.51 585.15h19.44v8.07h-19.44zM215.78 599.83h19.44v8.07h-19.44zM248.51 614.52h19.44v8.07h-19.44zM183.06 614.52h19.44v8.07h-19.44z" class="colorcae5f6 svgShape"></path><path fill="#ccd8f8" d="M475.5 339.62h135.46v299.64H475.5z" class="colorcce7f8 svgShape"></path><path fill="#9bb4f5" d="M475.5 339.62h18.78v299.64H475.5z" class="color9bcef5 svgShape"></path><path fill="#ccd8f8" d="M283.08 197.1h181.75v442.16H283.08z" class="colorcce7f8 svgShape"></path><path fill="#9bb4f5" d="M283.08 197.1h18.78v442.16h-18.78z" class="color9bcef5 svgShape"></path><path fill="#e8eefe" d="M417.3 218.27h28.38v11.78H417.3zM369.51 218.27h28.38v11.78h-28.38zM417.3 261.17h28.38v11.78H417.3zM369.51 261.17h28.38v11.78h-28.38zM321.72 261.17h28.38v11.78h-28.38zM417.3 304.06h28.38v11.78H417.3zM321.72 304.06h28.38v11.78h-28.38zM369.51 325.51h28.38v11.78h-28.38zM417.3 346.96h28.38v11.78H417.3zM369.51 368.41h28.38v11.78h-28.38zM417.3 389.85h28.38v11.78H417.3zM321.72 389.85h28.38v11.78h-28.38zM417.3 429.49h28.38v11.78H417.3zM369.51 429.49h28.38v11.78h-28.38zM417.3 472.39h28.38v11.78H417.3zM369.51 472.39h28.38v11.78h-28.38zM321.72 472.39h28.38v11.78h-28.38zM417.3 515.28h28.38v11.78H417.3zM321.72 515.28h28.38v11.78h-28.38zM369.51 536.73h28.38v11.78h-28.38zM321.72 536.73h28.38v11.78h-28.38zM417.3 558.18h28.38v11.78H417.3zM369.51 579.62h28.38v11.78h-28.38zM417.3 601.07h28.38v11.78H417.3zM321.72 601.07h28.38v11.78h-28.38zM568.83 230.06h178.13v409.2H568.83z" class="coloreaf5f8 svgShape"></path><path fill="#9bb4f5" d="M568.83 230.06h18.41v409.2h-18.41z" class="color9bcef5 svgShape"></path><path fill="#cad6f6" d="M700.38 249.65h27.82v10.9h-27.82zM653.54 249.65h27.82v10.9h-27.82zM700.38 289.35h27.82v10.9h-27.82zM653.54 289.35h27.82v10.9h-27.82zM606.7 289.35h27.82v10.9H606.7zM700.38 329.05h27.82v10.9h-27.82zM606.7 329.05h27.82v10.9H606.7zM653.54 348.9h27.82v10.9h-27.82zM700.38 368.75h27.82v10.9h-27.82zM653.54 388.59h27.82v10.9h-27.82zM700.38 408.44h27.82v10.9h-27.82zM606.7 408.44h27.82v10.9H606.7zM700.38 445.13h27.82v10.9h-27.82zM653.54 445.13h27.82v10.9h-27.82zM700.38 484.82h27.82v10.9h-27.82zM653.54 484.82h27.82v10.9h-27.82zM606.7 484.82h27.82v10.9H606.7zM700.38 524.52h27.82v10.9h-27.82zM606.7 524.52h27.82v10.9H606.7zM653.54 544.37h27.82v10.9h-27.82zM606.7 544.37h27.82v10.9H606.7zM700.38 564.22h27.82v10.9h-27.82zM653.54 584.07h27.82v10.9h-27.82zM700.38 603.92h27.82v10.9h-27.82zM606.7 603.92h27.82v10.9H606.7z" class="colorcae5f6 svgShape"></path><path fill="#e8eefe" d="M-6.85 360.15h114.73v279.11H-6.85z" class="coloreaf5f8 svgShape"></path><path fill="#9bb4f5" d="M-6.85 360.15H5.01v279.11H-6.85z" class="color9bcef5 svgShape"></path><path fill="#cad6f6" d="M77.87 373.52h17.92v7.44H77.87zM47.7 373.52h17.92v7.44H47.7zM77.87 400.6h17.92v7.44H77.87zM47.7 400.6h17.92v7.44H47.7zM17.54 400.6h17.92v7.44H17.54zM77.87 427.67h17.92v7.44H77.87zM17.54 427.67h17.92v7.44H17.54zM47.7 441.21h17.92v7.44H47.7zM77.87 454.75h17.92v7.44H77.87zM47.7 468.29h17.92v7.44H47.7zM77.87 481.83h17.92v7.44H77.87zM17.54 481.83h17.92v7.44H17.54zM77.87 506.85h17.92v7.44H77.87zM47.7 506.85h17.92v7.44H47.7zM77.87 533.92h17.92v7.44H77.87zM47.7 533.92h17.92v7.44H47.7zM17.54 533.92h17.92v7.44H17.54zM77.87 561h17.92v7.44H77.87zM17.54 561h17.92v7.44H17.54zM47.7 574.54h17.92v7.44H47.7zM17.54 574.54h17.92v7.44H17.54zM77.87 588.08h17.92v7.44H77.87zM47.7 601.61h17.92v7.44H47.7zM77.87 615.15h17.92v7.44H77.87zM17.54 615.15h17.92v7.44H17.54z" class="colorcae5f6 svgShape"></path><path fill="#ffffff" d="M-78.74 89.52h486.21v554.36H-78.74z" opacity=".14" class="colorffffff svgShape"></path><path fill="#ffffff" d="M402.15 83.18h10.64v567.85h-10.64z" class="colorffffff svgShape"></path><path fill="#ffffff" d="M88.65 633.86H50.91l202.29-538h37.73l-202.28 538zM22.02 633.86H3.15l202.28-538h18.87l-202.28 538zM247.3 633.86h-18.86l173.42-480.24v38.69L247.3 633.86z" opacity=".5" class="colorffffff svgShape"></path><path fill="#ffffff" d="M157.02 396.45h14.68v496.84h-14.68z" transform="rotate(-90 164.36 644.87)" class="colorffffff svgShape"></path><path fill="#ffffff" d="M240.08 86.04h10.64v562.13h-10.64z" class="colorffffff svgShape"></path><path fill="#ffffff" d="M162.12 398.37h4.48v475.46h-4.48z" transform="rotate(90 164.36 636.1)" class="colorffffff svgShape"></path><path fill="#ffffff" d="M158.02-158.9h12.69v496.84h-12.69z" transform="rotate(-90 164.36 89.52)" class="colorffffff svgShape"></path><path fill="#ffffff" d="M162.12-139.73h4.48v475.66h-4.48z" transform="rotate(90 164.36 98.1)" class="colorffffff svgShape"></path><path fill="#ffffff" d="M410.02 78.55h486.21v554.36H410.02z" opacity=".14" class="colorffffff svgShape"></path><path fill="#ffffff" d="M402.19 83.18h10.64v567.85h-10.64z" class="colorffffff svgShape"></path><path fill="#ffffff" d="M490.43 633.86H452.7l202.28-538h37.74l-202.29 538zM423.8 633.86h-18.87l202.29-538h18.87l-202.29 538z" opacity=".5" class="colorffffff svgShape"></path><path fill="#ffffff" d="M733.55 633.86h-18.86l173.43-480.24v38.69L733.55 633.86z" opacity=".6" class="colorffffff svgShape"></path><path fill="#ffffff" d="M564.26 86.04h10.64v562.13h-10.64z" class="colorffffff svgShape"></path><path fill="#ffffff" d="M643.27 396.45h14.68v496.84h-14.68z" transform="rotate(-90 650.61 644.87)" class="colorffffff svgShape"></path><path fill="#ffffff" d="M726.33 86.04h10.64v562.13h-10.64z" class="colorffffff svgShape"></path><path fill="#ffffff" d="M648.37 398.37h4.48v475.46h-4.48z" transform="rotate(90 650.615 636.105)" class="colorffffff svgShape"></path><path fill="#ffffff" d="M644.27-158.9h12.69v496.84h-12.69z" transform="rotate(-90 650.615 89.515)" class="colorffffff svgShape"></path><path fill="#ffffff" d="M648.37-139.73h4.48v475.66h-4.48z" transform="rotate(90 650.61 98.1)" class="colorffffff svgShape"></path><path fill="#ffffff" d="M413.05-313.94h6.34V686.62h-6.34z" transform="rotate(-90 416.22 186.34)" class="colorffffff svgShape"></path><path fill="#ffffff" d="M413.05-144.8h6.34V855.76h-6.34z" transform="rotate(-90 416.22 355.48)" class="colorffffff svgShape"></path><path fill="#ffffff" d="M413.05 24.33h6.34v1000.56h-6.34z" transform="rotate(-90 416.225 524.615)" class="colorffffff svgShape"></path></g><path fill="#1857ff" d="M216.59 508.53 197.9 498l-7.64 11.21a54.17 54.17 0 0 0-18.68-2.21l-4.78-12.7-20.62 5.79 2.53 13.34a54 54 0 0 0-14.79 11.62l-12.36-5.6-10.5 18.7 11.22 7.64a54.11 54.11 0 0 0-2.22 18.68l-12.7 4.78 5.79 20.62 13.33-2.53a54 54 0 0 0 11.63 14.78l-5.6 12.37 18.7 10.51 7.64-11.21a54.51 54.51 0 0 0 18.67 2.21l4.79 12.7 20.62-5.79-2.54-13.33A54.27 54.27 0 0 0 215.18 598l12.36 5.6 10.5-18.7-11.22-7.64a54.12 54.12 0 0 0 2.23-18.67l12.7-4.79-5.75-20.65-13.33 2.53A54.38 54.38 0 0 0 211 520.9Zm-8.3 71.94a38.69 38.69 0 1 1-14.8-52.69 38.7 38.7 0 0 1 14.8 52.69Z" class="colorff5a18 svgShape"></path><path fill="#5473c7" d="m239.14 584.83-10.92 19.46-12.45-5.63c-1.22 1.38-7.07 7.72-14.39 11.32l2.55 13.41-21.46 6-4.82-12.78a54.52 54.52 0 0 1-18.17-2.17l-7.7 11.29-19.45-10.92 5.67-12.42c-1.47-1.34-8.57-8-11.34-14.38l-13.39 2.54-6-21.46 12.76-4.8a44.62 44.62 0 0 1 2.18-18.19l-11.28-7.69L121.78 519l12.44 5.63c1.24-1.4 7.19-7.89 14.39-11.32l-2.54-13.41 21.46-6 4.81 12.78a47.59 47.59 0 0 1 18.18 2.17l7.69-11.29 19.46 10.92-5.67 12.36a48.76 48.76 0 0 1 11.31 14.4l13.42-2.55 6 21.47L230 559a42.13 42.13 0 0 1-2.18 18.19Zm-11.32 18.25 10.08-18-11.17-7.6.12-.35a40.23 40.23 0 0 0 2.21-18.44l-.07-.38 12.67-4.77-5.57-19.8-13.26 2.51-.16-.32a47.35 47.35 0 0 0-11.5-14.63l-.29-.22 5.58-12.32-18-10.08-7.6 11.16-.34-.11a45.93 45.93 0 0 0-18.47-2.2l-.37.05L167 495l-19.81 5.57 2.52 13.27-.33.15c-8 3.71-14.57 11.43-14.63 11.51l-.23.27-12.3-5.57-10.08 18 11.15 7.6-.1.34c-3.44 10.52-2.23 18.38-2.21 18.46l.06.38-12.66 4.77 5.56 19.8 13.25-2.55.15.35c2.82 6.9 11.42 14.54 11.5 14.62l.26.23-5.56 12.29 18 10.08 7.6-11.15.34.1a52.77 52.77 0 0 0 18.49 2.21h.36l4.67 12.55 19.8-5.56-2.51-13.27.32-.16c8.17-3.91 14.58-11.43 14.64-11.5l.23-.27Z" class="color547ac7 svgShape"></path><path fill="#5473c7" d="M213.29 570a39.2 39.2 0 1 1-29.94-46.65A39.24 39.24 0 0 1 213.29 570Zm-75.67-16.51a38.25 38.25 0 1 0 45.53-29.22 38.3 38.3 0 0 0-45.53 29.2Z" class="color547ac7 svgShape"></path><path fill="#7e92c6" d="M654.7 631.55H113.37a1 1 0 0 1 0-2H654.7a1 1 0 0 1 0 2Z" class="color7e99c6 svgShape"></path><path fill="#e8eefe" d="M127.1 305.76h386.72v216.97H127.1z" transform="rotate(-90 319.725 414.155)" class="coloreaf5f8 svgShape"></path><path fill="#5473c7" d="m429.06 608.31-217.94-.43.73-387.7 217.94.44Zm-217-1.4 216 .43.73-385.75-216-.43Z" class="color547ac7 svgShape"></path><path fill="#3a6ffd" d="m421.83 206.32-125.45.68v16.28l63.53.13 45.28.25a27.63 27.63 0 0 1 27.57 27.68l-.59 315A27.62 27.62 0 0 1 404.46 594l-108.81.23-.07 34.2L421 629.59A27.63 27.63 0 0 0 448.7 602l.7-368a27.63 27.63 0 0 0-27.57-27.68Z" class="color3a68fd svgShape"></path><path fill="#002fad" d="M413.94 206.36c-.5-.07-1-.12-1.53-.16s-1.26-.06-1.92-.06H217.61A17.91 17.91 0 0 0 199.7 224v387.48a17.89 17.89 0 0 0 17.88 17.89h192.9c.64 0 1.27 0 1.89-.06a27.63 27.63 0 0 0 25.76-27.57l.07-368a27.64 27.64 0 0 0-24.26-27.38ZM216.31 365.43v-124a17.9 17.9 0 0 1 17.91-17.89h169.41a17.23 17.23 0 0 1 2.28.15 17.88 17.88 0 0 1 15.61 17.75v6.21l-.06 328.25a17.92 17.92 0 0 1-17.91 17.91H234.17a17.89 17.89 0 0 1-17.88-17.9Z" class="color002cad svgShape"></path><path fill="#3a6ffd" d="m341.49 619.93-46-.09a8.35 8.35 0 0 1-8.33-8.37 8.34 8.34 0 0 1 8.36-8.33l46 .09a8.35 8.35 0 0 1 8.33 8.37 8.34 8.34 0 0 1-8.36 8.33Z" class="color3a68fd svgShape"></path><path fill="#ccd8f8" d="M421.5 247.69H216.27v-17.4a7.12 7.12 0 0 1 7.12-7.12h191a7.11 7.11 0 0 1 7.12 7.12Z" class="colorcce7f8 svgShape"></path><path fill="#5473c7" d="M422 248.17H215.79v-17.88a7.61 7.61 0 0 1 7.6-7.61h191a7.61 7.61 0 0 1 7.61 7.61Zm-205.23-1H421v-16.88a6.65 6.65 0 0 0-6.64-6.64h-191a6.64 6.64 0 0 0-6.63 6.64Z" class="color547ac7 svgShape"></path><path fill="#ffffff" d="M255.49 235.43a3.77 3.77 0 1 1 3.77 3.76 3.77 3.77 0 0 1-3.77-3.76ZM241 235.43a3.77 3.77 0 1 1 3.77 3.76 3.77 3.77 0 0 1-3.77-3.76ZM226.51 235.43a3.77 3.77 0 1 1 3.77 3.76 3.77 3.77 0 0 1-3.77-3.76ZM403.56 232.67l1.86-1.86 2.66 2.66 2.67-2.66 1.86 1.86-2.66 2.67 2.66 2.66-1.86 1.86-2.67-2.66-2.66 2.66-1.86-1.86 2.66-2.66-2.66-2.67z" class="colorffffff svgShape"></path><path fill="#0046ff" d="m235.81 259.23 63.17-.09a6.73 6.73 0 0 1 6.73 6.71l.09 59.15a6.73 6.73 0 0 1-6.71 6.73l-63.18.09a6.73 6.73 0 0 1-6.73-6.71L229.1 266a6.72 6.72 0 0 1 6.71-6.77Z" class="colorffb900 svgShape"></path><path fill="#1857ff" d="M235.9 332.3a7.24 7.24 0 0 1-7.22-7.21L228.6 266a7.23 7.23 0 0 1 7.21-7.23l63.17-.09a7.22 7.22 0 0 1 7.22 7.21l.1 59.11a7.24 7.24 0 0 1-7.21 7.23l-63.18.09Zm63.1-72.66-63.17.09a6.23 6.23 0 0 0-6.23 6.27l.08 59.13a6.23 6.23 0 0 0 6.22 6.21l63.17-.09a6.23 6.23 0 0 0 6.23-6.25l-.09-59.13a6.23 6.23 0 0 0-6.22-6.21Z" class="colorff5a18 svgShape"></path><path fill="#ffffff" d="M265.48 272.81a17.26 17.26 0 0 0-15.18 15.39 17.06 17.06 0 0 0 2.85 11.36l13.59 18.59a.89.89 0 0 0 1.44 0l13.58-18.59a17.22 17.22 0 0 0 2.94-9.62 17.25 17.25 0 0 0-19.22-17.13Zm9.34 18.4a7.48 7.48 0 1 1-8.65-8.65 7.46 7.46 0 0 1 8.65 8.65Z" class="colorffffff svgShape"></path><path fill="#1857ff" d="m335.11 259.23 63.18-.09a6.73 6.73 0 0 1 6.73 6.71l.08 59.15a6.72 6.72 0 0 1-6.71 6.73l-63.17.09a6.72 6.72 0 0 1-6.73-6.71L328.4 266a6.73 6.73 0 0 1 6.71-6.77Z" class="colorff5a18 svgShape"></path><path fill="#003ddf" d="M335.21 332.3a7.22 7.22 0 0 1-7.22-7.21L327.9 266a7.24 7.24 0 0 1 7.21-7.23l63.17-.09a7.23 7.23 0 0 1 7.22 7.21l.1 59.11a7.24 7.24 0 0 1-7.21 7.23l-63.17.09Zm63.09-72.66-63.18.09a6.23 6.23 0 0 0-6.22 6.27l.09 59.13a6.22 6.22 0 0 0 6.22 6.21l63.17-.09a6.21 6.21 0 0 0 6.22-6.25l-.08-59.13a6.24 6.24 0 0 0-6.22-6.23Z" class="colordf000d svgShape"></path><path fill="#ffffff" d="M360 310.87c1.07 3.06-1.3 6.67-5.28 8.06s-8.08 0-9.15-3 1.29-6.68 5.28-8.07 8.15-.06 9.15 3.01ZM386.07 302.34c1.07 3.07-1.3 6.68-5.28 8.07s-8.08 0-9.15-3 1.29-6.67 5.28-8.06 8.08-.07 9.15 2.99Z" class="colorffffff svgShape"></path><path fill="#ffffff" d="M358.33 271.76h-2.69a1 1 0 0 0-1 1v36.42h3.7v-32.9a.82.82 0 0 1 .82-.82H379a.82.82 0 0 1 .82.82v30.84h3.7v-34.35a1 1 0 0 0-1-1Z" class="colorffffff svgShape"></path><path fill="#9db6f7" d="m235.09 363.2 63.17-.09a6.73 6.73 0 0 1 6.73 6.71l.08 59.13a6.7 6.7 0 0 1-6.71 6.72l-63.17.1a6.73 6.73 0 0 1-6.73-6.71l-.08-59.13a6.72 6.72 0 0 1 6.71-6.73Z" class="color9dd0f7 svgShape"></path><path fill="#5473c7" d="M235.18 436.27a7.24 7.24 0 0 1-7.22-7.21l-.08-59.13a7.23 7.23 0 0 1 7.21-7.23l63.17-.09a7.22 7.22 0 0 1 7.22 7.21l.08 59.12a7.2 7.2 0 0 1-7.2 7.23l-63.18.1Zm-.09-72.57a6.23 6.23 0 0 0-6.21 6.23l.08 59.13a6.24 6.24 0 0 0 6.22 6.21l63.17-.1a6.2 6.2 0 0 0 6.21-6.22l-.08-59.13a6.23 6.23 0 0 0-6.22-6.21Z" class="color547ac7 svgShape"></path><path fill="#ffffff" d="m282 397.67-23.73-16.06a2.13 2.13 0 0 0-3.33 1.77v32.12a2.13 2.13 0 0 0 3.33 1.77L282 401.21a2.14 2.14 0 0 0 0-3.54Z" class="colorffffff svgShape"></path><path fill="#3a6ffd" d="m335.11 363.2 63.18-.09a6.73 6.73 0 0 1 6.73 6.71l.08 59.18a6.71 6.71 0 0 1-6.71 6.72l-63.17.1a6.72 6.72 0 0 1-6.73-6.71l-.09-59.13a6.73 6.73 0 0 1 6.71-6.78Z" class="color3a68fd svgShape"></path><path fill="#ffffff" d="M405.06 400.25v30.28a5.29 5.29 0 0 1-5.28 5.28h-66a5.29 5.29 0 0 1-5.28-5.28V422l11.49-12.79a2.52 2.52 0 0 1 3.7-.07l15.18 15.7a2.52 2.52 0 0 0 3.67 0l31.21-34a2.55 2.55 0 0 1 3.84.12Z" class="colorffffff svgShape"></path><circle cx="351.6" cy="382.24" r="9.25" fill="#ffffff" class="colorffffff svgShape"></circle><path fill="#1857ff" d="m235.09 467.17 63.17-.09a6.72 6.72 0 0 1 6.73 6.71l.08 59.12a6.71 6.71 0 0 1-6.71 6.73l-63.17.1a6.73 6.73 0 0 1-6.73-6.71l-.08-59.13a6.72 6.72 0 0 1 6.71-6.73Z" class="colorff5a18 svgShape"></path><path fill="#003ddf" d="M235.18 540.24A7.24 7.24 0 0 1 228 533l-.08-59.13a7.23 7.23 0 0 1 7.21-7.23l63.17-.09a7.22 7.22 0 0 1 7.22 7.21l.08 59.12a7.2 7.2 0 0 1-7.2 7.23l-63.18.1Zm-.09-72.57a6.23 6.23 0 0 0-6.21 6.23L229 533a6.24 6.24 0 0 0 6.22 6.22l63.17-.1a6.2 6.2 0 0 0 6.21-6.23l-.08-59.12a6.23 6.23 0 0 0-6.22-6.21Z" class="colordf000d svgShape"></path><path fill="#ffffff" d="m290.17 502.3 5.4-2-2.46-8.75-5.66 1.08a22.91 22.91 0 0 0-4.93-6.27l2.38-5.25-7.9-4.48-3.24 4.76a22.86 22.86 0 0 0-7.92-.94l-2-5.39-8.84 2.46 1.08 5.65a22.91 22.91 0 0 0-6.28 4.93l-5.24-2.37-4.44 7.92 4.75 3.25a23 23 0 0 0-1 7.92l-5.38 2 2.45 8.75 5.65-1.08a23.14 23.14 0 0 0 4.94 6.28l-2.3 5.23 7.93 4.45 3.24-4.76a23.05 23.05 0 0 0 7.92.95l2 5.38 8.73-2.45-1.05-5.63a23.1 23.1 0 0 0 6.3-4.94l5.23 2.38 4.45-7.93-4.75-3.24a22.8 22.8 0 0 0 .94-7.91Zm-8.8 9.29a16.41 16.41 0 1 1-6.28-22.34 16.41 16.41 0 0 1 6.28 22.34Z" class="colorffffff svgShape"></path><path fill="#0046ff" d="m335.11 467.17 63.18-.09a6.72 6.72 0 0 1 6.73 6.71l.08 59.12a6.72 6.72 0 0 1-6.71 6.73l-63.17.1a6.72 6.72 0 0 1-6.73-6.71l-.09-59.13a6.73 6.73 0 0 1 6.71-6.73Z" class="colorffb900 svgShape"></path><path fill="#1857ff" d="M335.21 540.24A7.23 7.23 0 0 1 328 533l-.09-59.13a7.24 7.24 0 0 1 7.21-7.23l63.17-.09a7.23 7.23 0 0 1 7.22 7.21l.08 59.12a7.22 7.22 0 0 1-7.21 7.23l-63.17.1Zm-.1-72.57a6.23 6.23 0 0 0-6.21 6.23l.1 59.1a6.23 6.23 0 0 0 6.22 6.22l63.17-.1a6.2 6.2 0 0 0 6.21-6.23l-.08-59.12a6.23 6.23 0 0 0-6.22-6.21Z" class="colorff5a18 svgShape"></path><path fill="#ffffff" d="m365.4 507-21.24-17.73a.92.92 0 0 1 .53-1.62h44.43a.91.91 0 0 1 .52 1.62L368.41 507a2.32 2.32 0 0 1-3.01 0ZM357.77 504.52l-13.12 11.31a.91.91 0 0 1-1.5-.69v-22.27a.9.9 0 0 1 1.49-.69l13.12 11a.9.9 0 0 1 .01 1.34Z" class="colorffffff svgShape"></path><path fill="#ffffff" d="M389.41 518.68c0 .11-.19.19-.41.22h-43.91c-.22 0-.37-.11-.41-.22s0-.3.21-.49l.21-.18 14.2-12.24a1.24 1.24 0 0 1 1.6 0l3.25 2.71a4.28 4.28 0 0 0 5.5 0l3.4-2.83a1.24 1.24 0 0 1 1.6 0L389 518l.21.18c.17.2.25.36.2.5ZM390.66 492.87v22a.91.91 0 0 1-1.5.68l-13-11.18a.91.91 0 0 1 0-1.38l13-10.84a.9.9 0 0 1 1.5.72Z" class="colorffffff svgShape"></path><path fill="#1f1f1f" d="M290 206.12v152.16a7.19 7.19 0 0 1-7.15 7.15h-83.18V224.01a17.91 17.91 0 0 1 17.91-17.91Z" opacity=".15" class="color1f1f1f svgShape"></path><path fill="#8094c8" d="M467.52 602.64s3.22-5.56 11.91-2.58 11.41 2.58 11.41 2.58 18.74-26.28 66-26.28 65.13 12.4 77 26.3a15 15 0 0 0 6.46-1.66c3.17-1.68 3.17.67 5.4 1.64 0 0 2 5.24-2.23 4.5s-9.12-.56-9.87 1 .59 24.47-79.24 20.77c-49.13-2.27-58.8-9.79-64.76-16.74 0 0-7.69-3.1-11.29-1.48a7.9 7.9 0 0 1-10.79-8.05Z" class="color809bc8 svgShape"></path><path fill="#9db6f7" d="M447.07 602.64s3.23-5.56 11.91-2.58 11.41 2.58 11.41 2.58 18.74-26.28 66-26.28 65.13 12.4 77 26.3a15 15 0 0 0 6.42-1.64c3.17-1.68 3.17.67 5.4 1.64 0 0 2 5.24-2.23 4.5s-9.12-.56-9.87 1 .59 24.47-79.24 20.77c-49.13-2.27-58.8-9.79-64.76-16.74 0 0-7.69-3.1-11.29-1.48a7.9 7.9 0 0 1-10.75-8.07Z" class="color9dd0f7 svgShape"></path><path fill="#5473c7" d="M550.14 629.83q-7.7 0-16.25-.4c-48.43-2.24-58.74-9.52-65-16.81-.93-.36-7.66-2.87-10.81-1.46a8.62 8.62 0 0 1-7.93-.88c-1.69-1.13-3.67-3.38-3.54-7.65v-.12l.06-.11c0-.06 3.53-5.87 12.48-2.8 7.21 2.47 10.28 2.59 11 2.58 1.83-2.38 21.39-26.3 66.25-26.3 47.9 0 65.48 12.61 77.26 26.29a14.46 14.46 0 0 0 6-1.58c2.41-1.28 3.35-.37 4.26.5a5.31 5.31 0 0 0 1.55 1.13l.18.08.08.18c.12.31 1.13 3 0 4.45a2.69 2.69 0 0 1-2.74.7c-4.42-.77-8.79-.42-9.34.76a3.85 3.85 0 0 0-.11.49c-2.78 13.66-25.09 20.94-63.4 20.95Zm-89.62-20.05a28.33 28.33 0 0 1 8.81 2h.11l.08.09c6.13 7.16 16.16 14.34 64.41 16.57 47.72 2.21 75.63-4.81 78.6-19.78a3.28 3.28 0 0 1 .19-.71c1-2.1 6.75-1.93 10.38-1.29.89.15 1.51 0 1.83-.36.63-.77.2-2.54-.06-3.32a6.1 6.1 0 0 1-1.64-1.23c-.87-.83-1.35-1.29-3.15-.34a15.44 15.44 0 0 1-6.65 1.7h-.22l-.14-.17c-11.63-13.57-29-26.13-76.68-26.13-46.45 0-65.42 25.82-65.61 26.08l-.12.17h-.2c-.12 0-2.94.37-11.64-2.61-7.65-2.63-10.8 1.55-11.27 2.28-.08 3.75 1.64 5.71 3.11 6.69a7.75 7.75 0 0 0 7 .81 7 7 0 0 1 2.86-.45Z" class="color547ac7 svgShape"></path><path fill="#8094c8" d="M321.09 602.64s3.22-5.56 11.9-2.58 11.42 2.58 11.42 2.58 18.73-26.28 66-26.28 65.13 12.4 77 26.3a15 15 0 0 0 6.42-1.64c3.16-1.68 3.16.67 5.4 1.64 0 0 2 5.24-2.24 4.5s-9.12-.56-9.86 1 .59 24.47-79.24 20.77c-49.13-2.27-58.81-9.79-64.76-16.74 0 0-7.69-3.1-11.29-1.48a7.9 7.9 0 0 1-10.75-8.07Z" class="color809bc8 svgShape"></path><path fill="#9db6f7" d="M300.64 602.64s3.22-5.56 11.91-2.58 11.45 2.58 11.45 2.58 18.73-26.28 66-26.28 65.13 12.4 77 26.3a15 15 0 0 0 6.42-1.64c3.16-1.68 3.16.67 5.4 1.64 0 0 2 5.24-2.24 4.5s-9.12-.56-9.86 1 .59 24.47-79.24 20.77c-49.13-2.27-58.81-9.79-64.76-16.74 0 0-7.69-3.1-11.29-1.48a7.9 7.9 0 0 1-10.79-8.07Z" class="color9dd0f7 svgShape"></path><path fill="#5473c7" d="M403.7 629.83q-7.69 0-16.25-.4c-48.43-2.24-58.74-9.52-65-16.81-.93-.36-7.66-2.87-10.8-1.46a8.62 8.62 0 0 1-7.93-.88c-1.69-1.13-3.68-3.38-3.54-7.65v-.12l.06-.11c0-.06 3.53-5.87 12.48-2.8 7.2 2.47 10.27 2.6 11 2.58 1.83-2.38 21.38-26.3 66.25-26.3 47.89 0 65.48 12.61 77.25 26.29a14.46 14.46 0 0 0 6-1.58c2.42-1.28 3.36-.37 4.27.5a5.18 5.18 0 0 0 1.55 1.13l.18.08.07.18c.12.31 1.14 3 0 4.45a2.69 2.69 0 0 1-2.74.7c-4.43-.77-8.79-.42-9.35.76 0 .06-.07.29-.11.49-2.77 13.66-25.09 20.94-63.39 20.95Zm-89.62-20.05a28.34 28.34 0 0 1 8.82 2h.11l.07.09c6.14 7.16 16.17 14.34 64.42 16.57 47.71 2.21 75.62-4.81 78.6-19.78a3.28 3.28 0 0 1 .19-.71c1-2.1 6.74-1.93 10.37-1.29.9.15 1.51 0 1.84-.36.62-.77.2-2.54-.07-3.32a6.21 6.21 0 0 1-1.63-1.23c-.87-.83-1.35-1.29-3.16-.34a15.44 15.44 0 0 1-6.65 1.7h-.21l-.15-.17c-11.63-13.57-29-26.13-76.67-26.13-46.45 0-65.42 25.82-65.61 26.08l-.12.17h-.2c-.12 0-2.95.37-11.64-2.61-7.59-2.6-10.81 1.58-11.28 2.28-.08 3.75 1.65 5.71 3.12 6.69a7.77 7.77 0 0 0 7 .81 7.11 7.11 0 0 1 2.85-.45Z" class="color547ac7 svgShape"></path><path fill="#ffffff" d="M391.65 526.69c-23.2-13.65-20.49-16.05-24.82-27.19-1-2.59 7.47-6.45 7.47-6.45 17.49 14.95 23.21 13.69 28.3 8.34 2.24-2.34 16.63-55.69 36.55-65.86 6.86-3.5 5.83-.29 8.33 7 5 14.76-1.24 47.33-12.9 67.49-13.73 23.76-20.98 29.58-42.93 16.67Z" class="colorffffff svgShape"></path><path fill="#5473c5" d="M410.06 533.88c-4.95 0-10.8-2.15-18.65-6.78-19.7-11.58-20.85-15.1-23.41-22.75-.45-1.37-1-2.93-1.64-4.68-1.12-2.86 6.23-6.38 7.71-7.05l.28-.13.23.2c18.16 15.51 23.26 13 27.65 8.37.43-.46 1.72-4 3.21-8.19 5.81-16.17 17.89-49.81 33.46-57.76 2.72-1.39 4.28-1.76 5.39-1.28 1.31.58 1.77 2.24 2.47 4.76.31 1.11.66 2.36 1.14 3.78 5 14.7-1.26 47.69-12.93 67.89-7.78 13.46-13.43 21.13-20.95 23.11a15.42 15.42 0 0 1-3.96.51Zm-35.84-40.26c-3.31 1.55-7.5 4.25-6.94 5.7.69 1.77 1.21 3.34 1.66 4.73 2.45 7.43 3.57 10.83 23 22.23 9.82 5.78 16.37 7.62 21.9 6.17 7.2-1.9 12.72-9.43 20.37-22.67 11.56-20 17.81-52.61 12.85-67.1-.49-1.45-.84-2.71-1.15-3.83-.63-2.25-1-3.74-1.94-4.14s-2.19 0-4.56 1.25c-15.23 7.78-27.23 41.18-33 57.23-2 5.5-2.86 7.95-3.42 8.53-5.62 5.85-11.86 6.28-28.77-8.1Z" class="color547ac5 svgShape"></path><path fill="#3a6ffd" d="M595.52 531.57c-17.37-2-33.75 2.55-52.44 5.65a187 187 0 0 1-19.08 2.27 137.59 137.59 0 0 1-21.09-.31 1.59 1.59 0 0 0-1.57 1.13c-14.5 1.22-29 2.83-43.43 3.85-22.62 1.6-44.76 3.09-65.38-6.32-16.58-7.52-34.61-15.56-54.13-10.69-2.47.62-6.82 16.26-4.39 15.63 10-2.51 20.06-2.62 30-1.68-1.09 7.64 5.41 13.28 10.74 18.14 9.17 8.43 19.56 15.61 29.6 23q16.22 11.92 32.76 23.43c8 5.53 15.45 12.9 25.68 12.39 22.69-1.14 44.25-13.56 63-25.32 22.69-14.23 43.23-31.43 64-48.25 1.26-1.04 7.57-12.72 5.73-12.92Z" class="color3a68fd svgShape"></path><path fill="#ffffff" d="M458.55 484.32a59 59 0 0 1-23.32-.73 37 37 0 0 1-4.4-1.29 54.29 54.29 0 0 1-18.89-11.76c.82-4 7.05-31 21-43.21a68.24 68.24 0 0 1 13.08-9.12c5-2.61 10.36-4 14.31-1.81a7.86 7.86 0 0 1 1.84 1.37c12.2 12.04 3.65 43.79-3.62 66.55Z" class="colorffffff svgShape"></path><path fill="#5473c5" d="M448.12 485.61a53.1 53.1 0 0 1-13-1.55 36.32 36.32 0 0 1-4.45-1.31 55.26 55.26 0 0 1-19.06-11.86l-.2-.18.06-.26c.25-1.24 6.38-30.5 21.2-43.48a68.08 68.08 0 0 1 13.17-9.19C452 414.57 457 414 460.61 416a8.26 8.26 0 0 1 1.94 1.45c12 11.92 4.43 42.08-3.54 67l-.09.29h-.3a70.79 70.79 0 0 1-10.5.87Zm-35.66-15.24A53.48 53.48 0 0 0 431 481.85a34.58 34.58 0 0 0 4.35 1.27 57.75 57.75 0 0 0 22.85.76c7.85-24.63 15.3-54.26 3.68-65.77a7.5 7.5 0 0 0-1.73-1.29c-4.12-2.31-9.81-.29-13.86 1.81a66.93 66.93 0 0 0-13 9.07c-14 12.3-20.15 39.5-20.83 42.67Z" class="color547ac5 svgShape"></path><path fill="#0046ff" d="M543.08 537.22a2 2 0 0 1-.75 1.18c-.63.42-1.25.82-1.88 1.25a3.63 3.63 0 0 1 0 .66C539.19 553.4 520.93 556 511 556.23c-4.19.11-8.42.08-12.62 0-16.42 3-34 4.78-50.33.67a2 2 0 0 1-.35-3.77c9.76-4.07 22-2.66 33.16-1.68a99.7 99.7 0 0 0 13-2.63c8.7-2.43 17-6 25.8-8a41.48 41.48 0 0 0 4.39-1.25 187 187 0 0 0 19.03-2.35Z" class="color0031ff svgShape"></path><path fill="#9bb4f5" d="M447.27 485.93a111.79 111.79 0 0 1-16.44-3.63c19.13-13.49.79-32.11 7.14-40.49 2.7-3.57 4.13-20.7 8.09-23.6 5-2.61 10.36-4 14.31-1.81-3.5 2.78-10.05 8.84-13.25 11.14-5.72 7.78-.71 19.74-.58 29.24.31 1.91 1.79 28.66.73 29.15Z" class="color9bcef5 svgShape"></path><path fill="#ffffff" d="M414.67 544.61c58.95 25.71 124.18-6.65 124.45-6.76-1.1-2.12-14.27-24.36-17.88-32.48a44.75 44.75 0 0 1-3.25-13.6 102.27 102.27 0 0 1 .08-20.93c.23-2.55.51-4.47.63-5.37a1.82 1.82 0 0 0 .07-.31c4.75-23.6 15.05-51.59-12.34-60.21a56.19 56.19 0 0 0-12-2.28 115 115 0 0 0-17.36-.11 166.37 166.37 0 0 0-17.88 7.72c-3.25 1.65-6.7 3.53-10 5.6-9.88 6.2-12 18.62-11.68 27.09.23 5.88 7.25 18.38 9.17 20.93-4.25 27.87-27.47 72.64-32.01 80.71Z" class="colorffffff svgShape"></path><path fill="#5473c5" d="M465 555.07c-16.22 0-33.58-2.64-50.5-10l-.49-.22.26-.46c5.69-10.09 27.72-53.24 31.9-80.34-1.9-2.65-8.91-14.91-9.15-21-.19-4.58.1-20.11 11.9-27.51 3-1.86 6.23-3.7 10-5.63a169 169 0 0 1 17.93-7.75h.13a115.93 115.93 0 0 1 17.44.12 55.4 55.4 0 0 1 12.14 2.29c24.5 7.72 19.44 30.27 14.55 52.07-.65 2.88-1.31 5.85-1.89 8.69a1.22 1.22 0 0 1-.09.36v.31c-.14 1-.37 2.75-.57 5a103.85 103.85 0 0 0-.09 20.84 44.55 44.55 0 0 0 3.22 13.46c2.69 6.05 10.75 20 15.08 27.55 1.45 2.53 2.51 4.35 2.79 4.9l.24.46-.48.2c-4.83 2.2-36.44 16.66-74.32 16.66Zm-49.64-10.69c55 23.69 114.73-2.77 123.12-6.75-.45-.8-1.36-2.39-2.54-4.43-4.33-7.52-12.41-21.54-15.12-27.63a44.77 44.77 0 0 1-3.29-13.75 104.37 104.37 0 0 1 .08-21c.21-2.23.44-4 .58-5l.05-.38a2.11 2.11 0 0 0 .07-.27c.59-2.93 1.25-5.91 1.9-8.79C525 435 530 412.86 506.28 405.41a54.69 54.69 0 0 0-11.89-2.26 116.28 116.28 0 0 0-17.26-.12 166.27 166.27 0 0 0-17.76 7.68c-3.78 1.91-7 3.74-9.95 5.58C438 423.42 437.77 438.5 438 443c.23 5.79 7.21 18.19 9.08 20.66l.12.16v.2c-4.14 26.8-25.75 69.41-31.86 80.36Z" class="color547ac5 svgShape"></path><path fill="#ffffff" d="M470.51 394.11v11.06s-3 5.45 0 6c6.53 1.31 16-8.88 16-8.88V387.5Z" class="colorffffff svgShape"></path><path fill="#5473c5" d="M471.71 411.81a7.07 7.07 0 0 1-1.3-.12 2 2 0 0 1-1.47-1.11c-.81-1.74.72-4.83 1.09-5.53v-11.26l16.92-7v15.74l-.13.14c-.37.38-8.55 9.14-15.11 9.14Zm-.71-17.38v10.86l-.06.11c-.5.92-1.68 3.57-1.12 4.78a1 1 0 0 0 .79.56c5.8 1.17 14.25-7.41 15.39-8.6v-13.93Z" class="color547ac5 svgShape"></path><path fill="#9bb4f5" d="M486.47 400.75v-8.44s-8.12 7.76-16 8.2c.04 0 9.53 4.59 16 .24Z" class="color9bcef5 svgShape"></path><path fill="#ffffff" d="M455.76 368.59s2 16.13 6 26.59c2.85 7.43 20.5 9.68 25.53-5.69s-5.94-28.74-5.94-28.74Z" class="colorffffff svgShape"></path><path fill="#5473c5" d="M472.43 401.41c-5.22 0-9.76-2.45-11.15-6.06-4-10.39-6-26.54-6-26.7l-.05-.4 26.25-8.05.2.25c.11.13 11.09 13.75 6 29.19-2.36 7.2-7.92 11.6-14.88 11.77Zm-16.14-32.48c.33 2.55 2.3 16.7 5.89 26.08 1.26 3.27 5.78 5.56 10.64 5.44 6.53-.16 11.76-4.31 14-11.11 4.52-13.8-4.23-26.13-5.67-28Z" class="color547ac5 svgShape"></path><path fill="#1857ff" d="M493.44 342.81c-4.41-4-9.8-4.79-15-1.61-2.06 1.27-3.91 3.19-4 5.73a7.19 7.19 0 0 0 1.11 4c-9-.4-40.74 9.67-22.15 29.91 1.14-11.57 14.5-16 21.72-11.35a22 22 0 0 1 2.2 4c2 4.37 3.63 8.2 7.73 11.07 5.35 3.75 10.59 1.32 11-3.94.3-3.61-.95-9.95-3-15.58 3.63.29 7.68-1.58 9-5 2.39-5.96-4.68-13.66-8.61-17.23Z" class="colorff5a18 svgShape"></path><path fill="#ffffff" d="M476.89 375.1s3.1-4.19 5.75-1.31.68 6.51-1.26 6.77-4.7-3.56-4.49-5.46Z" class="colorffffff svgShape"></path><path fill="#5473c5" d="M481.18 381.05a3.92 3.92 0 0 1-2.49-1.28c-1.22-1.19-2.44-3.25-2.28-4.72v-.13l.08-.1c.07-.1 1.8-2.41 3.91-2.52a3.2 3.2 0 0 1 2.57 1.17 4.87 4.87 0 0 1 1.12 5 3.67 3.67 0 0 1-2.67 2.52Zm-3.82-5.77a6.25 6.25 0 0 0 2 3.8 2.7 2.7 0 0 0 2 1 2.75 2.75 0 0 0 1.89-1.89 3.89 3.89 0 0 0-.93-4.07 2.25 2.25 0 0 0-1.81-.86c-1.51.07-2.81 1.6-3.15 2.02Z" class="color547ac5 svgShape"></path><path fill="#9bb4f5" d="M459.74 467.66c8.67 6.59 21 6.67 31 10.51 8.82 3.41 17.95 11.56 27.24 13.6a102.27 102.27 0 0 1 .08-20.93 1.73 1.73 0 0 0-.28-.31c.28-1.65.55-3.34.91-5.06a1.05 1.05 0 0 1 0-.31 41.46 41.46 0 0 0-8.66-10.94c-11.37-10.74-8.47-37.12-8.47-37.12-2.59 13.17-3.25 33.32 1.14 41.39a92.78 92.78 0 0 0 8.82 12.94c0 .15-.12.27-.12.47.28 4.31-26.34-4.51-29.51-5.33a66.08 66.08 0 0 0-21.44-2.47c-1.77.11-1.96 2.62-.71 3.56Z" class="color9bcef5 svgShape"></path><path fill="#0046ff" d="M513.49 592.69c-1.13-.18-2.27-.41-3.4-.61a7 7 0 0 0 .85-1.27 2 2 0 0 0-.52-2.32c-3-2.27-7.16-2.23-10.81-2-3.49.21-6.88 1.18-10.43.85-5.22-.48-10.44-2.88-15.38-4.52-14.58-4.85-29.45-9.25-43.59-15.29a108.1 108.1 0 0 1-22.81-12.8c-5.17-3.91-9.86-8.49-15.41-11.9-2.62-1.61-14.18-8.69-14.51-.65-.28 7 13.84 12.94 18.72 15.59C411.38 566 424 577.85 437.11 589c9 7.61 17.23 18.38 29.88 17.61 15.92-1 31.82-4.93 46.83-10.11a2 2 0 0 0-.33-3.81Z" class="color0031ff svgShape"></path><path fill="#9bb4f5" d="M502.42 610.42c-.7-4.33-3.07-4.46-6.75-4.37-6.8.17-11.61-4.23-18.55-3-4.95.9-9.16 1.66-14.26.89-1.69-.25-4.1-1.3-5.86-.62-3.89 1.51-6.16 7.87-5.75 11.59a1.11 1.11 0 0 0 .92 1 1 1 0 0 0 .86.7c7.54 1.17 12.94 8 19.81 11.05a41.93 41.93 0 0 0 9.08 2.76c2.1.41 4.49.52 6.44 1.52.34.17 2.7 2.2 3.66 2.35 8.29 1.39 11.25-18.68 10.4-23.87Z" class="color9bcef5 svgShape"></path><path fill="#3a6ffd" d="M462.28 603.12c-8.72-10-51-41.82-61.06-50.42-9.57-8.22-20-15.65-31.72-20.5-9-3.7-21.33-7.42-31.13-5-8.74 2.12-11.07 6.73-13.69 14.58a37.84 37.84 0 0 0-1.72 7.89 35.64 35.64 0 0 0 4.13 21.31c5.6 10 16.16 16 25.54 21.94 11 6.9 95.89 27.59 100.55 24.51a17.5 17.5 0 0 0 4-4.56c3.06-4.14 4.35-5.17 5.1-9.75Z" class="color3a68fd svgShape"></path><path fill="#9bb4f5" d="M490.23 607.2h-.06c-3.86.34-8 1.54-8.46 6-.24 2.38.71 4.78.87 7.15a40.41 40.41 0 0 0 1.18 9.15c.44 1.49 2.56.65 2.22-.79-1.68-7.27 1.87-13.8 5.73-19.68.73-1.09-.59-2.41-1.48-1.83Z" class="color9bcef5 svgShape"></path><path fill="#0046ff" d="M452.05 608.57c-9.21-5.49-19.82-7.94-30.26-9.9-12.23-2.26-24.29-4.35-36.12-8.29-13.83-4.62-27.67-10-39.4-18.83-8.56-6.41-16-14.09-23.31-21.92a35.64 35.64 0 0 0 4.13 21.31c5.6 10 16.16 16 25.54 21.94 11 6.9 95.89 27.59 100.55 24.51a17.5 17.5 0 0 0 4-4.56 20.39 20.39 0 0 0-5.13-4.26Z" class="color0031ff svgShape"></path><path fill="#ffffff" d="M448.49 642.05c.95-.16 3.32-2.18 3.66-2.36 1.94-1 4.33-1.1 6.43-1.51a41.93 41.93 0 0 0 9.08-2.76c6.87-3 12.27-9.89 19.81-11.06a1 1 0 0 0 .86-.7 1.1 1.1 0 0 0 .92-1c.41-3.72-1.85-10.07-5.75-11.58-1.76-.68-4.17.36-5.86.61-5.1.77-9.31 0-14.26-.89-6.94-1.26-11.75 3.14-18.55 3-3.68-.1-6.06 0-6.76 4.36-.84 5.17 2.12 25.24 10.42 23.89Z" class="colorffffff svgShape"></path><path fill="#5473c5" d="M447.69 642.59a5.72 5.72 0 0 1-4.11-1.89c-5-5-6.65-18.51-6-22.64.8-4.94 3.93-4.86 7.25-4.77a25 25 0 0 0 8.2-1.6c3.19-1 6.49-2.08 10.42-1.36 4.85.89 9 1.65 14.1.89.45-.07 1-.2 1.52-.34 1.49-.37 3.17-.8 4.58-.25 4.26 1.65 6.47 8.37 6.06 12.09a1.57 1.57 0 0 1-1.05 1.34 1.49 1.49 0 0 1-1.13.78c-4.4.68-8.15 3.42-11.79 6.06a44.06 44.06 0 0 1-7.91 5 42.71 42.71 0 0 1-9.18 2.79c-.57.11-1.15.2-1.74.29a14.93 14.93 0 0 0-4.57 1.18l-.6.44a10.2 10.2 0 0 1-3.2 2 5.1 5.1 0 0 1-.85-.01Zm-4-28.36c-2.93 0-4.54.49-5.1 4-.68 4.13 1.1 17.22 5.71 21.82a4.64 4.64 0 0 0 4.15 1.54 11.83 11.83 0 0 0 2.77-1.77 8 8 0 0 1 .74-.53 15.66 15.66 0 0 1 4.86-1.28c.58-.09 1.15-.17 1.7-.28a41.69 41.69 0 0 0 9-2.73 43.92 43.92 0 0 0 7.72-4.85c3.73-2.72 7.59-5.52 12.21-6.24a.55.55 0 0 0 .48-.38l.09-.26.26-.06a.61.61 0 0 0 .54-.58c.38-3.46-1.74-9.65-5.45-11.08-1.12-.44-2.65-.06-4 .28-.57.15-1.11.28-1.61.36-5.21.78-9.47 0-14.42-.9-3.68-.67-6.73.3-10 1.34a25 25 0 0 1-8.52 1.63Z" class="color547ac5 svgShape"></path><path fill="#3a6ffd" d="M482 620.93a17.79 17.79 0 0 0 4 4.55c4.67 3.09 89.6-17.6 100.56-24.51 9.38-5.91 19.93-12 25.54-21.94a35.6 35.6 0 0 0 4.13-21.3 38.22 38.22 0 0 0-1.73-7.89c-2.61-7.85-6.12-15.53-14.86-17.66-9.8-2.37-22.11 1.34-31.13 5-11.73 4.85-22.15 12.27-31.72 20.5-10 8.6-51.19 42.45-59.9 52.49-.57.69 1.71 5.64 5.11 10.76Z" class="color3a68fd svgShape"></path><path fill="#9bb4f5" d="M450.27 614.92h.06c3.86.35 8 1.55 8.46 6 .24 2.37-.71 4.78-.86 7.15a40.43 40.43 0 0 1-1.2 9.15c-.42 1.48-2.55.65-2.21-.8 1.69-7.27-1.87-13.79-5.73-19.67-.73-1.1.59-2.41 1.48-1.83Z" class="color9bcef5 svgShape"></path><path fill="#0046ff" d="M482 620.93a17.79 17.79 0 0 0 4 4.55c4.67 3.09 89.6-17.6 100.56-24.51 9.38-5.91 19.93-12 25.54-21.94a35.6 35.6 0 0 0 4.13-21.3c-7.26 7.82-14.76 15.5-23.31 21.91-11.74 8.84-25.57 14.22-39.4 18.83-11.83 3.94-23.9 6-36.13 8.3-10.44 2-21 4.4-30.26 9.9a20.31 20.31 0 0 0-5.13 4.26Z" class="color0031ff svgShape"></path><path fill="#3a6ffd" d="M494 360a46.58 46.58 0 0 1-17.12-11.33c-1.76-1.82-4.36 1.12-2.62 2.92a49.1 49.1 0 0 0 18 11.9c2.28.84 4.07-2.64 1.74-3.49Z" class="color3a68fd svgShape"></path><path fill="#ffffff" d="M500.22 505.57s4.27 12.23 4.69 13.28c0 0 37.08 21.89 62.84 13.84 25.15-7.88 7.4-59.28-10.17-87.58-.06-.12-.18-.18-.27-.29-18.37-17.81-34.25 16-30.7 18.77 1.28 1 4.22 7.94 5.69 9.59 7.61 8.58 16.31 29.61 16.88 34.22.25 2.07-48.09-2.1-48.96-1.83Z" class="colorffffff svgShape"></path><path fill="#5473c5" d="M555.23 534.92c-23.71 0-50.25-15.47-50.56-15.66l-.14-.08-.06-.15c-.43-1-4.53-12.8-4.71-13.3l-.16-.47.47-.15c.29-.09 1.73 0 10.32.59 11.68.81 35.72 2.47 38.28 1.54-.81-5.16-9.33-25.4-16.72-33.74a29.83 29.83 0 0 1-2.81-4.79c-1-2-2.24-4.28-2.83-4.75s-.84-1.65-.54-3.39c1-5.68 7.57-17.81 16.57-20.73 5.24-1.7 10.38-.14 15.3 4.63l.11.11a.88.88 0 0 1 .26.32c15 24.25 27.51 59.7 20.88 77.54a16.72 16.72 0 0 1-11 10.71 42.44 42.44 0 0 1-12.66 1.77Zm-49.93-16.4c2.54 1.46 37.85 21.35 62.31 13.71A15.78 15.78 0 0 0 578 522.1c6.52-17.55-5.86-52.64-20.82-76.74l-.23-.24c-4.61-4.46-9.43-5.94-14.3-4.37-8.64 2.8-15 14.5-15.92 20-.27 1.52-.08 2.27.18 2.48.71.56 1.64 2.28 3.09 5.05a32.1 32.1 0 0 0 2.67 4.61c7.61 8.57 16.4 29.63 17 34.48a.6.6 0 0 1-.17.5c-1.13 1.2-14.63.5-39.15-1.19-4.24-.29-8-.56-9.44-.61.83 2.4 3.83 10.93 4.39 12.45Z" class="color547ac5 svgShape"></path><path fill="#ffffff" d="M530.5 477.42c-3.26-2.56-24.54-20.14-29.32-37.91-2.17-8.08-5.7-26.61 4.34-29.85 16.1-5.19 40.67 16.64 57.78 33.24-5.3 16.19-14.79 28-32.8 34.52Z" class="colorffffff svgShape"></path><path fill="#5473c5" d="m530.42 478-.21-.17c-1-.77-24.41-19.24-29.49-38.15-1.68-6.25-6.3-26.9 4.66-30.44 15.89-5.13 39.48 15.13 58.26 33.36l.21.21-.09.28c-5.82 17.69-16.34 28.75-33.1 34.82Zm-19.64-68.61a16.35 16.35 0 0 0-5.11.77c-10.15 3.27-5.65 23.23-4 29.27 4.81 17.89 26.42 35.48 28.94 37.48 16.22-5.94 26.45-16.7 32.16-33.83-16.61-16.08-36.91-33.73-51.99-33.73Z" class="color547ac5 svgShape"></path><path fill="#ffffff" d="M506.52 518.82c-1.58 1.66-2.84.37-4.76.42-2.35 0-9.07 4-11.36 2.58-3.06-1.88 4.68-3 3.27-4.74-.51-.61-11.53 2.78-7.92-1.66.79-1 6.67-2.95 4.59-3.64-2.55.42-8.2 2.15-8.49-.38-.14-1.19 3.09-2.55 4.7-2.83 8-1.37 4.05-2.12-1.24-.89-2.75.65-3.82-.95-1.29-2.8 5.26-3.83 13.54-2.06 18.38.62 2.04 1.13 7.65 9.6 4.12 13.32Z" class="colorffffff svgShape"></path><path fill="#5473c5" d="M491.73 522.61a3 3 0 0 1-1.58-.38c-.24-.15-1-.6-.95-1.33 0-.9 1.16-1.5 2.35-2.12.7-.37 1.74-.92 1.81-1.26a15.71 15.71 0 0 0-2.2.28c-3.37.54-5.8.83-6.47-.32-.5-.87.39-2 .68-2.32a8.86 8.86 0 0 1 2.43-1.49 16.23 16.23 0 0 0 2.34-1.33l-1.27.26c-2.41.5-5.41 1.13-6.78.15a1.72 1.72 0 0 1-.72-1.25c-.2-1.71 3.57-3.09 5.1-3.36 1.18-.2 2-.38 2.64-.53a24 24 0 0 0-3.69.58c-1.58.37-2.8.07-3.19-.78-.18-.39-.4-1.48 1.51-2.88 5.65-4.12 14.4-1.9 18.89.59 1.53.85 4.78 5.25 5.41 9.31a5.41 5.41 0 0 1-1.17 4.76 3.12 3.12 0 0 1-3.51.79 6.17 6.17 0 0 0-1.59-.22 16.62 16.62 0 0 0-3.89 1.19c-2.2.8-4.46 1.66-6.15 1.66Zm1.57-6.08a.85.85 0 0 1 .74.25 1.1 1.1 0 0 1 .26.93c-.16.79-1.2 1.33-2.3 1.91-.68.36-1.83 1-1.84 1.31 0 .06.1.24.49.48 1.23.76 4.37-.44 6.89-1.4a16 16 0 0 1 4.21-1.25 6.28 6.28 0 0 1 1.83.25c1 .24 1.72.4 2.59-.52a4.51 4.51 0 0 0 .92-4c-.56-3.65-3.61-7.88-4.92-8.61-4.28-2.37-12.57-4.51-17.86-.65-1 .75-1.34 1.41-1.21 1.7s.92.52 2.1.25c1.75-.41 5.57-1 6.22-.31l.19.21-.07.36c-.1.29-.27.77-4.9 1.56-1.89.33-4.39 1.67-4.32 2.31a.8.8 0 0 0 .33.58c1 .74 4 .11 6-.31l1.6-.32H490.48c.6.2.75.54.76.79.06.78-1.05 1.38-3 2.38a11.05 11.05 0 0 0-2.11 1.23c-.74.92-.61 1.21-.6 1.24.39.67 4 .1 5.49-.15a17.34 17.34 0 0 1 2.28-.22Z" class="color547ac5 svgShape"></path><path fill="#ffffff" d="M500.05 505.76c-.72-.56-1.25-1.45-1.93-2.08a6.47 6.47 0 0 1-1.93-2.69c-.45-1.7 1.22-1.71 2.32-1.19 2 .95 4.59 5.51 5.62 7.38.14.25-3.35-.85-4.08-1.42Z" class="colorffffff svgShape"></path><path fill="#5473c5" d="M504.08 507.66a14.07 14.07 0 0 1-4.33-1.52 7.94 7.94 0 0 1-1.16-1.23 8.66 8.66 0 0 0-.8-.88 6.81 6.81 0 0 1-2.06-2.92 1.57 1.57 0 0 1 .38-1.74 2.61 2.61 0 0 1 2.61 0c1.5.7 3.41 3.18 5.83 7.58l.19.34-.3.28a.58.58 0 0 1-.36.09Zm-6.84-7.66a.85.85 0 0 0-.52.13c-.18.15-.13.5-.06.76a5.62 5.62 0 0 0 1.78 2.45 10.23 10.23 0 0 1 .89 1 6.59 6.59 0 0 0 1 1.08 14 14 0 0 0 2.87 1.15c-2-3.62-3.7-5.73-4.9-6.3a2.59 2.59 0 0 0-1.06-.27Z" class="color547ac5 svgShape"></path><path fill="#ffffff" d="m477.44 373.76.81 1.53 2.68 4.68a3.52 3.52 0 0 0 .74 1.43c.59.69-2.3 2.38-3.27 1.67s-4.37-3.59-4.37-3.59-.77-2.54-.33-3.8 2.65-2.32 2.65-2.32ZM497.25 503.9s1.05.36 1.05-.69 3.66 1.23 4.32 2.3 1.28.57 2.22.77 5.67 7.64 5.67 7.64.48 3.56.16 3.64-2.83 1.83-2.83 1.83l-1.13-.1a1.21 1.21 0 0 0-1.31-.24 2.31 2.31 0 0 1-1.82-.38l-5.58-9.26a21.9 21.9 0 0 1-1.62-2.85 25.93 25.93 0 0 1 .87-2.66ZM515.55 409.87l-2.6-1.56c-1-.6-16.14.57-16.14.57l-1.12 8.22-1 12.88 4.51 3s.31-1.17.91-.3a3.83 3.83 0 0 0 2.28 1.08l6-6.86s5.11-7.83 5.43-8.39 1.73-8.64 1.73-8.64ZM449 416.47s-4.3 3.32-5.84 3.8-8.67 6.19-8.35 11.31 1.83 13.36 1.83 13.36l.29-1.48s.06-1.5 1-.54 2.72-.21 2.72-.21l4.27-7 10.95-10.4 6.88-2.16-1.2-7.79Z" class="colorffffff svgShape"></path><path fill="#9db6f7" d="m470.7 542.14 51.92 3.14-49.7 13.93-2.22-17.07z" class="color9dd0f7 svgShape"></path><path fill="#5473c7" d="m472.52 559.82-2.37-18.19 55.34 3.37Zm-1.27-17.17 2.08 16 46.42-13Z" class="color547ac7 svgShape"></path><path fill="#ccd8f8" d="m522.62 545.28.27 4.92-49.98 15.28.01-6.27 49.7-13.93z" class="colorcce7f8 svgShape"></path><path fill="#5473c7" d="M472.43 566.12v-7.27l50.61-14.2.33 5.9-.36.11Zm1-6.54v5.25l49-15-.22-4Z" class="color547ac7 svgShape"></path><path fill="#ccd8f8" d="m365.47 552.72 107.45 6.49-.01 6.27-107.41-7.18-.03-5.58z" class="colorcce7f8 svgShape"></path><path fill="#5473c7" d="M473.39 566 365 558.75v-6.54h.51l107.9 6.52ZM366 557.85 472.43 565v-5.3L366 553.23Z" class="color547ac7 svgShape"></path><path fill="#e8eefe" d="m365.47 552.72 107.45 6.49-8.27-58.37a4.26 4.26 0 0 0-4-3.69l-98.81-6a4.25 4.25 0 0 0-4.44 4.85Z" class="coloreaf5f8 svgShape"></path><path fill="#5473c7" d="M473.48 559.73h-.58l-107.85-6.52-.05-.38-8.07-56.83a4.72 4.72 0 0 1 5-5.34l98.81 6a4.74 4.74 0 0 1 4.4 4.11Zm-107.59-7.47 106.48 6.44-8.2-57.79a3.78 3.78 0 0 0-3.51-3.28l-98.81-6a3.78 3.78 0 0 0-3 1.19 3.74 3.74 0 0 0-1 3.06Z" class="color547ac7 svgShape"></path><path fill="#9db6f7" d="m599.05 235.56-13.59-7.63-5.55 8.15a39.3 39.3 0 0 0-13.57-1.61l-3.47-9.23-15 4.21 1.84 9.68a39.16 39.16 0 0 0-10.71 8.45l-9-4.07-7.63 13.59 8.15 5.55a39.54 39.54 0 0 0-1.61 13.57l-9.23 3.48 4.21 15 9.69-1.84a39.13 39.13 0 0 0 8.42 10.73l-4.06 9 13.58 7.63 5.56-8.15a39.49 39.49 0 0 0 13.57 1.62l3.47 9.22 15-4.2-1.84-9.71a39.7 39.7 0 0 0 10.72-8.45l9 4.07 7.63-13.62-8.15-5.55a39.34 39.34 0 0 0 1.62-13.57l9.23-3.48-4.21-15-9.69 1.84a39.4 39.4 0 0 0-8.43-10.7Zm-6 52.27a28.12 28.12 0 1 1-10.76-38.28A28.14 28.14 0 0 1 593 287.83Z" class="color9dd0f7 svgShape"></path><path fill="#5473c7" d="m615.43 291-7.94 14.14-9-4.09a38 38 0 0 1-10.49 8.23l1.85 9.74-15.59 4.38-3.5-9.28a39.52 39.52 0 0 1-13.2-1.58l-5.6 8.2-14.13-7.93 4.09-9.05c-1.07-1-6.23-5.81-8.25-10.45l-9.72 1.85-4.38-15.6 9.27-3.49a32.27 32.27 0 0 1 1.58-13.21l-8.2-5.59 7.94-14.14 9 4.09a36.85 36.85 0 0 1 10.49-8.22l-1.85-9.74 15.6-4.38 3.49 9.28a34.55 34.55 0 0 1 13.21 1.58l5.59-8.2 14.14 7.93-4.09 9A35.39 35.39 0 0 1 604 255l9.75-1.85 4.38 15.6-9.27 3.49a30.59 30.59 0 0 1-1.59 13.22Zm-8.22 13.26 7.32-13.05-8.11-5.52.08-.25a29.17 29.17 0 0 0 1.61-13.4l-.05-.28 9.2-3.47-4-14.39-9.64 1.83-.11-.23a34.4 34.4 0 0 0-8.36-10.63l-.21-.17 4.05-8.95-13.05-7.32-5.52 8.11-.25-.08a33.33 33.33 0 0 0-13.42-1.6h-.27l-3.46-9.2-14.39 4.05 1.83 9.65-.24.11c-5.84 2.69-10.59 8.3-10.63 8.36l-.17.2-8.98-4.03-7.33 13.05 8.11 5.52-.08.24a31.42 31.42 0 0 0-1.6 13.42v.28l-9.2 3.46 4 14.39 9.66-1.83.11.26c2 5 8.3 10.56 8.36 10.62l.19.17-4 8.93 13 7.32 5.53-8.1.24.07a38.54 38.54 0 0 0 13.57 1.62h.26l3.46 9.19 14.39-4-1.83-9.65.23-.11a37.34 37.34 0 0 0 10.64-8.36l.17-.2Z" class="color547ac7 svgShape"></path><path fill="#5473c7" d="M596.65 280.21a28.49 28.49 0 1 1-21.75-33.9 28.52 28.52 0 0 1 21.75 33.9Zm-55-12a27.8 27.8 0 1 0 33.1-21.21 27.84 27.84 0 0 0-33.09 21.21Z" class="color547ac7 svgShape"></path><rect width="137.2" height="171.38" x="141.45" y="182.38" fill="#e8eefe" rx="7.15" class="coloreaf5f8 svgShape"></rect><path fill="#5473c7" d="M271.5 354.26H148.6a7.65 7.65 0 0 1-7.65-7.64V189.53a7.66 7.66 0 0 1 7.65-7.65h122.9a7.66 7.66 0 0 1 7.65 7.65v157.09a7.65 7.65 0 0 1-7.65 7.64ZM148.6 182.88a6.65 6.65 0 0 0-6.65 6.65v157.09a6.65 6.65 0 0 0 6.65 6.64h122.9a6.66 6.66 0 0 0 6.65-6.64V189.53a6.66 6.66 0 0 0-6.65-6.65Z" class="color547ac7 svgShape"></path><path fill="#1857ff" d="M271.52 182.38H148.58a7.13 7.13 0 0 0-7.13 7.13v8.31h137.2v-8.31a7.13 7.13 0 0 0-7.13-7.13Z" class="colorff5a18 svgShape"></path><path fill="#ffffff" d="M150.11 190.28a1.08 1.08 0 1 0 1.08 1.08 1.08 1.08 0 0 0-1.08-1.08ZM154.67 190.28a1.08 1.08 0 1 0 1.08 1.08 1.08 1.08 0 0 0-1.08-1.08ZM159.23 190.28a1.08 1.08 0 1 0 1.08 1.08 1.08 1.08 0 0 0-1.08-1.08Z" class="colorffffff svgShape"></path><path fill="#002fad" d="m182.74 344.67-.1-2.42h-22.86l.1 2.42h22.86zM207.74 337.38l-.09-2.42H159.3l.1 2.42h48.34zM197.55 330.09l-.1-2.42h-38.79l.1 2.42h38.79zM192.03 344.67l-.1-2.42h-6.94l.1 2.42h6.94zM236.43 344.67l-.09-2.42h-22.87l.1 2.42h22.86zM261.43 337.38l-.09-2.42H213l.09 2.42h48.34zM251.24 330.09l-.1-2.42h-38.79l.1 2.42h38.79zM245.72 344.67l-.09-2.42h-6.94l.09 2.42h6.94zM182.41 323.07l-.09-2.42h-22.87l.1 2.42h22.86zM191.7 323.07l-.09-2.42h-6.94l.09 2.42h6.94zM236.1 323.07l-.09-2.42h-22.86l.09 2.42h22.86zM245.4 323.07l-.1-2.42h-6.94l.1 2.42h6.94z" class="color002cad svgShape"></path><path fill="#3a6ffd" d="M159.76 207.5h101.75v95.13H159.76z" class="color3a68fd svgShape"></path><path fill="#ffffff" d="M148.38 254.43h124.51v1.28H148.38z" transform="rotate(-44.36 210.666 255.087)" class="colorffffff svgShape"></path><path fill="#ffffff" d="M210 192.82h1.28v124.51H210z" transform="rotate(-45.67 210.645 255.07)" class="colorffffff svgShape"></path></svg>