<svg xmlns="http://www.w3.org/2000/svg" xmlns:xlink="http://www.w3.org/1999/xlink" enable-background="new 0 0 300 300" viewBox="0 0 300 300" id="BusinessmanMonitoringReport"><path fill="#e8eefe" fill-rule="evenodd" d="M35.4 146.3c-17-43.3 17.5-71.1 41.2-74.2 23.7-3.1 56.5 2.5 82.3 26.6s36.4-.3 80.7-.3c44.4 0 48.7 90.6-41 94-89.7 3.4-146.2-2.8-163.2-46.1" clip-rule="evenodd" class="colorfbfbfb svgShape"></path><path fill="#e8eefe" fill-rule="evenodd" d="M182.6 69.4c13 1.6 22.8 9 21.9 16.5-.9 7.5-12.2 12.3-25.2 10.7-13-1.6-22.8-9-21.9-16.5.8-7.5 12.1-12.3 25.2-10.7M46 172.8c7.5 2.4 12.5 7.9 11.1 12.2-1.4 4.3-8.6 5.8-16.1 3.4-7.5-2.4-12.5-7.9-11.1-12.2 1.4-4.3 8.6-5.9 16.1-3.4" clip-rule="evenodd" class="colorfbfbfb svgShape"></path><path fill="#c7cee0" fill-rule="evenodd" d="m96.6 160.3-5.7 59.3c0 .3.2.6.5.6h.1c.4 0 .7-.3.7-.6l7.5-59.3h-3.1zm-6.6 0-5.7 59.3c0 .3.2.6.5.6h.1c.4 0 .7-.3.7-.6l7.5-59.3H90zm94.8 0 5.7 59.3c0 .3-.2.6-.5.6h-.1c-.4 0-.7-.3-.7-.6l-7.5-59.3h3.1zm6.6 0 5.7 59.3c0 .3-.2.6-.5.6h-.1c-.4 0-.7-.3-.7-.6l-7.5-59.3h3.1z" clip-rule="evenodd" class="colorc7d2e0 svgShape"></path><path fill="#d4dae9" fill-rule="evenodd" d="M83.5 158.3H195v2.6H83.5z" clip-rule="evenodd" class="colord4dfe9 svgShape"></path><path fill="#b1bad1" fill-rule="evenodd" d="M84.7 158.3h9.7v2.6h-9.7c-.7 0-1.2-.5-1.2-1.2v-.2c0-.6.5-1.2 1.2-1.2" clip-rule="evenodd" class="colorb1bfd1 svgShape"></path><path fill="#e8eefe" fill-rule="evenodd" d="M95.2 116h47c.9 0 1.6-.7 1.6-1.6V95.7c0-.9-.7-1.6-1.6-1.6h-47c-.9 0-1.6.7-1.6 1.6v18.7c0 .9.7 1.6 1.6 1.6" clip-rule="evenodd" class="colordfe6f6 svgShape"></path><path fill="none" stroke="#bbc1d1" stroke-linecap="round" stroke-width="1.205" d="M137.5 99.4c-3.2-.5-5.7.2-7.5 2.3-2.8 3.1-3.8 7.3-8.6 7.3s-5.5-6.5-9.7-6.5c-4.2 0-6.2 4.8-7.9 7.2-1.1 1.6-2.7 2.3-4.7 2.3" class="colorStrokebbc2d1 svgStroke"></path><path fill="none" stroke="#ffffff" stroke-linecap="round" stroke-width="1.205" d="M136.8 98.6c-3.2-.5-5.7.2-7.5 2.3-2.8 3.1-3.8 7.3-8.6 7.3s-5.5-6.5-9.7-6.5c-4.2 0-6.2 4.8-7.9 7.2-1.1 1.6-2.7 2.3-4.7 2.3" class="colorStrokeffffff svgStroke"></path><path fill="#7a9eff" fill-rule="evenodd" d="M136.9 99.9c.9 0 1.6-.7 1.6-1.6 0-.9-.7-1.6-1.6-1.6s-1.6.7-1.6 1.6c0 .9.7 1.6 1.6 1.6" clip-rule="evenodd" class="color7aa3ff svgShape"></path><path fill="#618cfe" fill-rule="evenodd" d="M98.2 109.4c.9 0 1.6.7 1.6 1.6 0 .9-.7 1.6-1.6 1.6s-1.6-.7-1.6-1.6c-.1-.8.7-1.6 1.6-1.6" clip-rule="evenodd" class="colorfe6166 svgShape"></path><path fill="#9eabcf" fill-rule="evenodd" d="M113.8 120.9h40.5c.7 0 1.3.6 1.3 1.3v28.4c0 .7-.6 1.3-1.3 1.3h-40.5c-.7 0-1.3-.6-1.3-1.3v-28.4c0-.7.6-1.3 1.3-1.3" clip-rule="evenodd" class="color9ec0cf svgShape"></path><path fill="#ffffff" fill-rule="evenodd" d="M114 122.4h40V145h-40z" clip-rule="evenodd" class="colorffffff svgShape"></path><path fill="#0046ff" fill-rule="evenodd" d="M120.5 124.8h27.1c.6 0 1 .4 1 1v15.7c0 .6-.4 1-1 1h-27.1c-.6 0-1-.4-1-1v-15.7c0-.5.4-1 1-1" clip-rule="evenodd" class="colorffac00 svgShape"></path><path fill="none" stroke="#ffffff" stroke-linecap="round" stroke-width="1.004" d="M123.9 128.7h12.2m4.2 0h3.8m-20.2 3.4h12.2m4.2 0h3.8m-20.2 3.3h12.2m4.2 0h3.8m-20.2 3.4h12.2m4.2 0h3.8" class="colorStrokeffffff svgStroke"></path><path fill="#c1d2ff" fill-rule="evenodd" d="M112.5 146.6h43.1v3.9c0 .7-.6 1.3-1.3 1.3h-40.5c-.7 0-1.3-.6-1.3-1.3v-3.9z" clip-rule="evenodd" class="colorc1ecff svgShape"></path><path fill="#ffffff" fill-rule="evenodd" d="M134 147.9c.7 0 1.3.6 1.3 1.3 0 .7-.6 1.3-1.3 1.3-.7 0-1.3-.6-1.3-1.3.1-.7.6-1.3 1.3-1.3" clip-rule="evenodd" class="colorffffff svgShape"></path><path fill="#c1d2ff" fill-rule="evenodd" d="m129.6 151.8-2.1 6.4h12.6l-1.6-6.4z" clip-rule="evenodd" class="colorc1ecff svgShape"></path><path fill="#9eabcf" fill-rule="evenodd" d="m138.5 151.8.4 1.8H129l.6-1.8zm-12.9 5.4H142c.3 0 .6.3.6.6s-.3.6-.6.6h-16.4c-.3 0-.6-.3-.6-.6.1-.3.3-.6.6-.6" clip-rule="evenodd" class="color9ec0cf svgShape"></path><path fill="#618cff" fill-rule="evenodd" d="M152.1 81h57.8c.7 0 1.2.5 1.2 1.2v34.4c0 .7-.5 1.2-1.2 1.2h-57.8c-.7 0-1.2-.5-1.2-1.2V82.2c0-.6.5-1.2 1.2-1.2" clip-rule="evenodd" class="colorff6166 svgShape"></path><path fill="none" stroke="#ffffff" stroke-linecap="round" stroke-width="1.004" d="M186.8 99.7h20m-20-4.5h20m-20 9.1h13.3" class="colorStrokeffffff svgStroke"></path><g opacity=".5" fill="#000000" class="color000000 svgShape"><defs><path id="a" d="M155.7 85.9H183v27.3h-27.3z" fill="#000000" class="color000000 svgShape"></path></defs><clipPath id="b"><use overflow="visible" xlink:href="#a"></use></clipPath><path fill="#ffffff" fill-rule="evenodd" d="M169.4 113.2c7.5 0 13.6-6.1 13.6-13.6S176.9 86 169.4 86s-13.6 6.1-13.6 13.6c-.1 7.5 6 13.6 13.6 13.6m0-5.5c-4.5 0-8.2-3.7-8.2-8.2 0-4.5 3.7-8.2 8.2-8.2 4.5 0 8.2 3.7 8.2 8.2 0 4.5-3.7 8.2-8.2 8.2" clip-path="url(#b)" clip-rule="evenodd" class="colorffffff svgShape"></path></g><path fill="#ffffff" fill-rule="evenodd" d="M169.3 85.9c-7.5 0-13.6 6.1-13.6 13.6s6.1 13.6 13.6 13.6c1.5 0 2.7-1.2 2.7-2.7 0-1.5-1.2-2.7-2.6-2.7h-.1c-4.5 0-8.2-3.7-8.2-8.2 0-4.5 3.6-8.1 8-8.2h.2c1.5 0 2.7-1.2 2.7-2.7.1-1.5-1.2-2.7-2.7-2.7" clip-rule="evenodd" class="colorffffff svgShape"></path><path fill="#e8eefe" fill-rule="evenodd" d="M162.4 123.6h45.7c.7 0 1.2.5 1.2 1.2v27.7c0 .7-.5 1.2-1.2 1.2h-45.7c-.7 0-1.2-.5-1.2-1.2v-27.7c0-.6.5-1.2 1.2-1.2" clip-rule="evenodd" class="colordfe6f6 svgShape"></path><path fill="#adc3fe" fill-rule="evenodd" d="M167 140.7h6.1c.3 0 .6.3.6.6v7.3h-7.3v-7.3c0-.4.2-.6.6-.6" clip-rule="evenodd" class="coloradc6fe svgShape"></path><path fill="#7a9eff" fill-rule="evenodd" d="M171.9 140.7h1.2c.3 0 .6.3.6.6v7.3h-1.8v-7.9z" clip-rule="evenodd" class="color7aa3ff svgShape"></path><path fill="none" stroke="#ffffff" stroke-linecap="round" stroke-width=".913" d="M165.7 148.6h8.7" class="colorStrokeffffff svgStroke"></path><path fill="#adc3fe" fill-rule="evenodd" d="M177 134.6h6.1c.3 0 .6.3.6.6v13.4h-7.3v-13.4c0-.3.3-.6.6-.6" clip-rule="evenodd" class="coloradc6fe svgShape"></path><path fill="#7a9eff" fill-rule="evenodd" d="M181.9 134.6h1.2c.3 0 .6.3.6.6v13.4h-1.8v-14z" clip-rule="evenodd" class="color7aa3ff svgShape"></path><path fill="none" stroke="#ffffff" stroke-linecap="round" stroke-width=".913" d="M176.1 148.6h8.3" class="colorStrokeffffff svgStroke"></path><path fill="#adc3fe" fill-rule="evenodd" d="M187.1 131.5h6.1c.3 0 .6.3.6.6v16.4h-7.3v-16.4c0-.3.2-.6.6-.6" clip-rule="evenodd" class="coloradc6fe svgShape"></path><path fill="#7a9eff" fill-rule="evenodd" d="M191.9 131.5h1.2c.3 0 .6.3.6.6v16.4h-1.8v-17z" clip-rule="evenodd" class="color7aa3ff svgShape"></path><path fill="none" stroke="#ffffff" stroke-linecap="round" stroke-width=".913" d="M186.1 148.6h8.4" class="colorStrokeffffff svgStroke"></path><path fill="#adc3fe" fill-rule="evenodd" d="M197.1 128.8h6.1c.3 0 .6.3.6.6v19.2h-7.3v-19.2c0-.3.3-.6.6-.6" clip-rule="evenodd" class="coloradc6fe svgShape"></path><path fill="#7a9eff" fill-rule="evenodd" d="M202 128.8h1.2c.3 0 .6.3.6.6v19.2H202v-19.8z" clip-rule="evenodd" class="color7aa3ff svgShape"></path><path fill="none" stroke="#ffffff" stroke-linecap="round" stroke-width=".913" d="M196.1 148.6h8.4" class="colorStrokeffffff svgStroke"></path><path fill="#b1bad1" fill-rule="evenodd" d="m62.9 180 1.2 6.6h7.7l-2.2-6.6z" clip-rule="evenodd" class="colorb1bfd1 svgShape"></path><path fill="#b1bad1" fill-rule="evenodd" d="M67.6 147.4H54.7c-.6 0-1.2.3-1.5.7-.4.4-.5 1-.4 1.6l7.5 28.8c.3 1 .9 1.8 1.7 2.4.8.6 1.9.9 2.9.9h5.9c3.5 0 6.8-1.4 9.2-3.9l.3-.4c2.2-2.3 3.6-5.3 3.9-8.5.3-3.2-.6-6.3-2.5-8.9L74.2 150c-.7-1-1.7-1.7-2.9-2.1-1.2-.3-2.4-.5-3.7-.5" clip-rule="evenodd" class="colorb1bfd1 svgShape"></path><path fill="#a7b0c9" fill-rule="evenodd" d="M80 198.6h2.4v17H80z" clip-rule="evenodd" class="colora7b7c9 svgShape"></path><path fill="#a7b0c9" fill-rule="evenodd" d="M78.5 210.8h5.8v10h-5.8z" clip-rule="evenodd" class="colora7b7c9 svgShape"></path><path fill="#c3cadb" fill-rule="evenodd" d="m80.3 212.6-19.1 6.1v7.7h1.5v-5.6l11.5-1.1 6.1-2z" clip-rule="evenodd" class="colorc3d0db svgShape"></path><path fill="#b1bad1" fill-rule="evenodd" d="M61.9 225.1c1.3 0 2.3 1 2.3 2.3 0 1.3-1 2.3-2.3 2.3-1.3 0-2.3-1-2.3-2.3 0-1.3 1-2.3 2.3-2.3" clip-rule="evenodd" class="colorb1bfd1 svgShape"></path><path fill="#c3cadb" fill-rule="evenodd" d="m82.2 212.6 19.1 6.1v7.7h-1.5v-5.6l-11.6-1.1-6-2z" clip-rule="evenodd" class="colorc3d0db svgShape"></path><path fill="#b1bad1" fill-rule="evenodd" d="M100.6 225.1c-1.3 0-2.3 1-2.3 2.3 0 1.3 1 2.3 2.3 2.3 1.3 0 2.3-1 2.3-2.3-.1-1.3-1.1-2.3-2.3-2.3" clip-rule="evenodd" class="colorb1bfd1 svgShape"></path><path fill="#d4dae9" fill-rule="evenodd" d="M80.3 212.6v6.4l-7.7 2.3v6.4h-1.7v-8.3z" clip-rule="evenodd" class="colord4dfe9 svgShape"></path><path fill="#b1bad1" fill-rule="evenodd" d="M71.9 225.1c1.3 0 2.3 1 2.3 2.3 0 1.3-1 2.3-2.3 2.3-1.3 0-2.3-1-2.3-2.3.1-1.3 1.1-2.3 2.3-2.3" clip-rule="evenodd" class="colorb1bfd1 svgShape"></path><path fill="#d4dae9" fill-rule="evenodd" d="M82.2 212.6v6.4l7.6 2.3v6.4h1.7v-8.3z" clip-rule="evenodd" class="colord4dfe9 svgShape"></path><path fill="#b1bad1" fill-rule="evenodd" d="M90.5 225.1c-1.3 0-2.3 1-2.3 2.3 0 1.3 1 2.3 2.3 2.3 1.3 0 2.3-1 2.3-2.3 0-1.3-1-2.3-2.3-2.3" clip-rule="evenodd" class="colorb1bfd1 svgShape"></path><path fill="#c7cee0" fill-rule="evenodd" d="M67.8 148.7H56.1c-.5 0-1 .2-1.4.6-.3.4-.5.9-.3 1.4l6.8 26.6c.2.9.8 1.7 1.5 2.2.8.5 1.7.8 2.6.8h5.5c3.2 0 6.2-1.3 8.4-3.7l.4-.4c2-2.1 3.2-4.8 3.4-7.7.3-2.8-.5-5.7-2.3-8l-7.1-9.4c-.7-.9-1.6-1.5-2.6-1.9-1-.3-2.1-.5-3.2-.5" clip-rule="evenodd" class="colorc7d2e0 svgShape"></path><path fill="#b1bad1" fill-rule="evenodd" d="M63 188.9h36.2v2.1c0 2.5-2 4.6-4.6 4.6H67.5c-2.5 0-4.6-2-4.6-4.6v-2.1z" clip-rule="evenodd" class="colorb1bfd1 svgShape"></path><path fill="#b1bad1" fill-rule="evenodd" d="M74.5 194.7h13.1v2.7c0 1.2-1 2.1-2.1 2.1h-8.8c-1.2 0-2.1-1-2.1-2.1v-2.7z" clip-rule="evenodd" class="colorb1bfd1 svgShape"></path><path fill="#a7b0c9" fill-rule="evenodd" d="M98.1 193.9c-.9 1-2.1 1.7-3.5 1.7H67.5c-1.4 0-2.7-.7-3.5-1.7 13.1-2.9 24.4-2.9 34.1 0" clip-rule="evenodd" class="colora7b7c9 svgShape"></path><path fill="#d4dae9" fill-rule="evenodd" d="M63 184h36.5c1.8 0 3.3 1.5 3.3 3.3s-1.5 3.3-3.3 3.3H63c-1.8 0-3.3-1.5-3.3-3.3s1.4-3.3 3.3-3.3" clip-rule="evenodd" class="colord4dfe9 svgShape"></path><path fill="#c3cadb" fill-rule="evenodd" d="M63 184h21.9c1.8 0 3.3 1.5 3.3 3.3s-1.5 3.3-3.3 3.3H63c-1.8 0-3.3-1.5-3.3-3.3s1.4-3.3 3.3-3.3" clip-rule="evenodd" class="colorc3d0db svgShape"></path><path fill="#7f9be7" fill-rule="evenodd" d="M60.5 122.2c1.7-.7 3.6-1.2 5.8-1.6l1.1 5.6c-1.6 0-2.7-.3-3.5-.7l-2.6.6-.8-3.9zm20.9-1.3c-1.8-.3-3.8-.5-6-.4l.1 5.7c1.5-.4 2.6-.8 3.2-1.4h2.7v-3.9z" clip-rule="evenodd" class="colore7887f svgShape"></path><path fill="#304272" fill-rule="evenodd" d="M69.7 131.1c-2.8-3.1-4.4-5.9-4.8-8.4-.6-3.7.7-5.7 2.9-6.9 2.2-1.2 9.2-2.4 9.1 5.4-.1 5.3-1.6 7.6-4.6 7.2l-2.6 2.7z" clip-rule="evenodd" class="color723045 svgShape"></path><path fill="#aac1ff" fill-rule="evenodd" d="m68.9 125.8-.2-.6c-.8-.7-1.6-.9-2.3-.6-1 .4-1.1 3.3 2.5 3.7l1.1 7.1c.9 1.2 2.2 1.6 3.8 1.3 1.6-.3 2.5-1.5 2.8-3.6l-1-3.5.9-.4c.7-.3 1.3-.9 1.5-1.7.2-.8.2-1.7 0-2.5l-1.2-5.4c-.2-.7-.4-1.3-.7-1.9-.1-.3-.5-.4-.7-.2-.1 0-.1.1-.2.2-.4.7-1 1.1-1.8 1.2-1.6.2-3.2-.4-4.2-.2s-1.6 1.4-.7 2.4c.9 1 1.5 1.8 1.1 2.7-.3.5-.3 1.2-.2 2 0 .1 0 .3-.2.3-.1-.1-.3-.1-.3-.3" clip-rule="evenodd" class="colorffb2aa svgShape"></path><path fill="none" stroke="#ffffff" stroke-width=".304" d="M74.6 126.2c.8.6 1.6.6 2.4 0m-1.1-5.9c-.7.3-1 1.1-.7 1.7.3.7 1.1 1 1.7.7.7-.3 1-1.1.7-1.7-.2-.7-1-1-1.7-.7z" class="colorStrokeffffff svgStroke"></path><path fill="none" stroke="#7f9be7" stroke-width=".304" d="M74.7 122.3c.1.6.5 1.1 1.2 1.2 1.1.3.8 1.1-.4 1.3" class="colorStrokee7887f svgStroke"></path><path fill="none" stroke="#ffffff" stroke-width=".304" d="M72.9 121.5c-.7.3-1 1.1-.7 1.7.3.7 1.1 1 1.7.7.7-.3 1-1.1.7-1.7-.2-.6-1-1-1.7-.7zm2.3.5-.5.2m-2.7.9-3.8 1" class="colorStrokeffffff svgStroke"></path><path fill="none" stroke="#304272" stroke-width=".609" d="M76.8 119.4c-.8-.1-1.5.2-2.3.9m-.9.4c-.9 0-1.6.4-2.1 1.2" class="colorStroke723045 svgStroke"></path><path fill="#273048" fill-rule="evenodd" d="M75.9 121.1c-.2.1-.2.3-.1.5s.3.4.4.3c.2-.1.2-.3.1-.5 0-.2-.2-.4-.4-.3m-2.7 1.1c-.2.1-.2.3-.1.5s.3.4.4.3c.2-.1.2-.3.1-.5s-.3-.4-.4-.3" clip-rule="evenodd" class="color482731 svgShape"></path><path fill="#7f9be7" fill-rule="evenodd" d="M71.8 129.2c1 .6 2.2.8 3.7.5l1 3.5c-1.1-.2-2.1-.5-2.7-1.1-.7-.6-1.3-1.6-2-2.9" clip-rule="evenodd" class="colore7887f svgShape"></path><path fill="none" stroke="#7f9be7" stroke-width=".304" d="M67.9 125.4c-.5-.3-.9-.3-1.3.1-.6.5.1 1.6 1.2 2" class="colorStrokee7887f svgStroke"></path><path fill="#081f5e" fill-rule="evenodd" d="m59.1 121 1.6-.2 1.1 5.9-2.4.8zm22.8-.7H80v5.1h2.2z" clip-rule="evenodd" class="color08535e svgShape"></path><path fill="#aac1ff" fill-rule="evenodd" d="m119.8 216.5 5.9-1.6 2.3 6.1-5.9 1.6z" clip-rule="evenodd" class="colorffb2aa svgShape"></path><path fill="#7f9be7" fill-rule="evenodd" d="m122.4 215.8 3.5-.2.5 1.2c-1.5 1.3-3.3 2.2-5.5 2.8l-1.2-3.1 2.7-.7z" clip-rule="evenodd" class="colore7887f svgShape"></path><path fill="#454545" fill-rule="evenodd" d="m120.2 220.4 7.2-1.9.7 2c.3.8.9 1.4 1.8 1.6l7.6 1.7c.7.1 1.2.6 1.4 1.3.2.6-.2 1.2-.8 1.3l-16.6 4.5c-.7-1.6-.9-3.3-.5-5.1.3-1.7.1-3.5-.8-5.4" clip-rule="evenodd" class="color454545 svgShape"></path><path fill="#696969" fill-rule="evenodd" d="M123.1 223.3c.7-.2 1.4.2 1.6.9.2.7-.2 1.4-.9 1.6-.7.2-1.4-.2-1.6-.9-.2-.7.2-1.4.9-1.6" clip-rule="evenodd" class="color696969 svgShape"></path><path fill="#252525" fill-rule="evenodd" d="M138.8 225.1c.2.6-.2 1.2-.8 1.3l-16.6 4.5c-.3-.6-.4-1.2-.6-1.7l17.6-4.7c.2.1.3.3.4.6" clip-rule="evenodd" class="color252525 svgShape"></path><path fill="none" stroke="#252525" stroke-width=".304" d="m132.2 222.2-3.6 2.6m2.1-3.5-3.7 2.6m2.4-3.6-3.7 2.6m1.9-3.8c-1.8.1-3.1.9-3.8 2.4-1 2.2 1.2 2.2 2.3.7.8-1 1.3-1.9 1.6-2.7 1.3 1.5 2.7 2 4.2 1.6 2.2-.6.8-1.7-1-2.1-1.1-.2-2.3-.2-3.3.1z" class="colorStroke252525 svgStroke"></path><path fill="#374261" fill-rule="evenodd" d="M65.6 167.9c-.7 6.3 1.1 11.3 5.5 15.2 4.4 3.9 17.3 4.1 38.7.6l7.4 33.8c1.7.4 3.5.4 5.4 0 1.9-.4 3.6-1.2 5.1-2.6l-5.9-36.9c-.4-2.3-1.7-4.2-3.6-5.4-2-1.2-4.3-1.9-6.7-2l-16.9-.5c-4.1-.1-8-2-10.7-5l-18.3 2.8z" clip-rule="evenodd" class="color373c61 svgShape"></path><path fill="none" stroke="#293249" stroke-width=".304" d="M72.1 169.3c.5 6.7 3.7 10.4 9.6 10.9 5.9.6 16.5.6 31.6 0l5.8 37.4" class="colorStroke292d49 svgStroke"></path><path fill="#aac1ff" fill-rule="evenodd" d="m109.6 193.3 6.2.3.3 6.5-6.2-.4z" clip-rule="evenodd" class="colorffb2aa svgShape"></path><path fill="#7f9be7" fill-rule="evenodd" d="m112.4 193.4 3.4.8.1 1.3c-1.8.7-3.8 1.1-6.1.9l-.2-3.3 2.8.3z" clip-rule="evenodd" class="colore7887f svgShape"></path><path fill="#454545" fill-rule="evenodd" d="m108.8 197.1 7.5.4v2.1c0 .9.5 1.7 1.2 2.1l6.7 4c.6.3.9 1 .9 1.7 0 .6-.5 1.1-1.2 1l-17.2-.9c-.2-1.8.2-3.4 1.1-5 1-1.6 1.3-3.3 1-5.4" clip-rule="evenodd" class="color454545 svgShape"></path><path fill="#696969" fill-rule="evenodd" d="M110.7 200.8c.7 0 1.3.6 1.2 1.4 0 .7-.6 1.3-1.4 1.2-.7 0-1.3-.6-1.2-1.4.1-.7.7-1.3 1.4-1.2" clip-rule="evenodd" class="color696969 svgShape"></path><path fill="#252525" fill-rule="evenodd" d="M125.1 207.3c0 .6-.5 1.1-1.2 1l-17.2-.9c-.1-.6-.1-1.2 0-1.8l18.2 1c.2.2.2.5.2.7" clip-rule="evenodd" class="color252525 svgShape"></path><path fill="none" stroke="#252525" stroke-width=".304" d="m119.7 202.5-4.3 1.4m3.1-2.7-4.3 1.4m3.4-2.8-4.3 1.4m3-3.1c-1.8-.5-3.2-.1-4.3 1.1-1.6 1.8.4 2.4 2 1.4 1-.7 1.8-1.4 2.4-2.1.8 1.8 2 2.8 3.5 2.9 2.3.1 1.3-1.4-.3-2.3-1.1-.6-2.2-.9-3.3-1z" class="colorStroke252525 svgStroke"></path><path fill="#445175" fill-rule="evenodd" d="m87.9 161 22.5-7.6c2.4-.8 5.1-.4 7.2 1 2.1 1.5 3.2 3.9 3 6.4l-2.6 33.5c-1.7.5-3.5.7-5.2.7-1.7 0-3.3-.2-4.6-.7l-1-25.8-2.7 1.9-9.9-.3c-4.1-.1-8-2-10.7-5.1l4-4z" clip-rule="evenodd" class="color444975 svgShape"></path><path fill="none" stroke="#293249" stroke-width=".304" d="m93 169.9-12.7-.6m26.9.5v-8.1m2.6-1c.6-2 1.8-3.2 3.6-3.8" class="colorStroke292d49 svgStroke"></path><path fill="#0b2a7d" fill-rule="evenodd" d="m69.3 131.8 7.1-.4c.6 0 1.2.4 1.3 1l.5 2.6c2.7-.4 5.1-1.7 7-3.7l4.4-4.7-5.9.2c-1 0-2-.5-2.6-1.4v-5.1c.6-.6 1.4-.9 2.2-.9h14.4c1.3 0 2.5.5 3.5 1.4.9.9 1.3 2.1 1.1 3.4l-.1.4c-.3 1.6-1 3-2 4.2l-13.7 16.3 4.3 15.3c-5.7 6.6-14.6 9.8-26.5 9.4l-4.5-23L41.4 134c-1.4-1-2.3-2.4-2.7-4l-.1-.2c-.4-1.4 0-2.9 1-4s2.4-1.9 3.9-2.3l12.7-3c1.2-.3 2.4-.1 3.5.5l1.3 6c-.3.9-1.1 1.6-2 1.8l-6.6 1.4 11.6 4.1c1.3.5 2.7.7 4.1.7l.2-2.1c-.1-.6.4-1.1 1-1.1" clip-rule="evenodd" class="color0b6f7d svgShape"></path><path fill="#082573" fill-rule="evenodd" d="m98.1 131.1-11.8 14.1 4.3 15.3c-5.7 6.6-14.6 9.8-26.5 9.4l-4.3-22.3-1.1-5.2c4.3 10.2 9.1 15.3 14.5 15.3 8 0 13.9-8.5 13-13.8v-2c-.1-1.9.4-3.6 2.8-5.3.5-.4 1-.7 1.7-1.1l.4-.2c.1 0 .1-.1.2-.1l.4-.2.4-.2 1-.5 1-.6.4-.2.4-.2.1-.3c1.1-.6 2.2-1.3 3.1-1.9" clip-rule="evenodd" class="color086673 svgShape"></path><path fill="none" stroke="#081f5e" stroke-width=".304" d="M88.5 126.7h9.2m-45.4 3.5-6.3 1m40.3 8.2c-.6 1.5-.6 3.4 0 5.9m-16.1-10c3.3.2 5.9.1 8-.3m-1.8.2-.3-2.7m-2.4 2.9-.2-2.9m-2.3 2.9v-2.1m-12.6 9 1.1 5.2" class="colorStroke08535e svgStroke"></path><path fill="none" stroke="#293249" stroke-width=".304" d="m109.8 194.6-.9-31.7" class="colorStroke292d49 svgStroke"></path><path fill="none" stroke="#252525" stroke-width=".304" d="M208.9 198.6c3.3.7 5.2 2.6 5.5 5.7.4 4.2 2.2 7.9 5.3 11.1-2.6-8.1-3.6-14.3-3-18.7.6-4.4-.1-7.5-2.3-9.5m8.7.7c-1.8 9.1-1.6 18.4.6 28.1-3.1-3.7-4.7-8.2-4.9-13.7m11.9-13.9c-6.1 7-8 16.2-5.9 27.6l1.2.4c-1.6-7.3-1.2-13.2.9-17.7M231.3 197.9c-3.5 4.4-5.1 10.4-4.8 18.1" class="colorStroke252525 svgStroke"></path><path fill="#0031b5" fill-rule="evenodd" d="M218.8 197.1c-.5-1.4-1.4-1.9-2.8-1.5-2.1.6-2.5 2.9-1.3 6.6.8 2.5 2.3 5.1 4.5 8 .1-1.5 1-3.6 2.6-6.2 2.4-4 2.6-6.6 1.4-7.6-.5-.4-1.5-.9-2.7-.5-.3.2-.9.6-1.7 1.2" clip-rule="evenodd" class="color00b58e svgShape"></path><path fill="none" stroke="#f9f9f9" stroke-width=".304" d="M219.3 210.3c-.9-5.2-1.1-9.6-.5-13.1M218.7 198.2c1.6-1.2 3.1-1.5 4.4-.8m-3.5 1.9c1.5-.2 2.5.2 3 1.1m-3.9-1.6c-1.3-.9-2.6-.8-3.9.2m.6 3.3c.7-1.1 1.7-1.6 3-1.5m-1.5 4.8c.1-.9.5-1.6 1.1-1.9m-2.6-6.9c.6-.5 1.5-.5 2.6 0m.5 5.1c1.3-.2 2.4.4 3.3 1.7m-2.6 1.4c.5 0 .9.4 1.1 1" class="colorStrokef9f9f9 svgStroke"></path><path fill="#0031b5" fill-rule="evenodd" d="M211.3 194.9c.5-2.5-.4-3.8-2.8-3.8-3.6 0-9.3 5.4-11.1 11.2 4.1-.1 7.3.1 9.5.4 3.4.5 6.6-1.5 6.6-4.1.1-1.7-.7-2.9-2.2-3.7" clip-rule="evenodd" class="color00b58e svgShape"></path><path fill="#012faa" fill-rule="evenodd" d="M208.5 191.1c2.4 0 3.3 1.3 2.8 3.8 1.5.8 2.2 2 2.2 3.7v.5c-.4-.7-1.1-1.2-2-1.3h-.1c-1.1 0-1.6-.4-2.1-.9l-.1-.1-.1-.2-.3-.4-.1-.1-.1-.1-.1-.1-.1-.1-.1-.1c-.6-.6-1.4-.9-3.2-.4-2.7.8-5.3 3-7.6 6.7h-.2c1.9-5.5 7.6-10.9 11.2-10.9" clip-rule="evenodd" class="color01aa85 svgShape"></path><path fill="none" stroke="#f9f9f9" stroke-width=".304" d="M211.3 194.9c-5.3 1.4-9.9 3.9-13.9 7.4M209.8 195.3c1.5.5 2.3 2 2.5 4.6m-3.3-2.8c.6 1 .5 2.5-.5 4.4m-3.3-3.6c0 1-.9 2.3-2.5 3.9m4.9-5.7c-.5-1.6-1.9-2.3-4.1-2m5.9 1.4c.3-1.7.2-2.9-.5-3.7m-5.7 6.4c-.7-.6-1.7-.8-2.9-.6m2.7-2.1c.9-.1 1.6.1 1.9.6m-4.6 4l-.8 1.7" class="colorStrokef9f9f9 svgStroke"></path><path fill="#0031b5" fill-rule="evenodd" d="M216.7 184.8c-1.9-.5-7.6.1-13.2 3.2 2.7-.3 4.9-.1 6.7.7 2.7 1.2 4.8 2.9 5.9 2 1.1-.8 2.6-5.4.6-5.9" clip-rule="evenodd" class="color00b58e svgShape"></path><path fill="#012995" fill-rule="evenodd" d="M217.5 187.6c-.2 1.4-.8 2.7-1.4 3.1-.5.4-1.2.2-2.1-.1l-.2-.1-.2-.1h-.1l-.2-.1-.2-.1-.2-.1-.3-.2-.9-.4-.4-.2-.3-.2-.2-.1s-.1 0-.1-.1l-.2-.1c-.1 0-.2-.1-.2-.1-1.7-.8-3.9-1-6.5-.7h-.2c.1 0 .3-.1.4-.1l.4-.1c1.9-.6 3.8-1 5.5-1.3h.8c.2 0 .4 0 .7-.1h1.1c2.5-.2 4.4.2 5 1.2" clip-rule="evenodd" class="color019574 svgShape"></path><path fill="none" stroke="#f9f9f9" stroke-width=".304" d="M215.7 191c.6-2-.3-3.4-2.7-4.2m-.3 3.2c-.2-1.1-1.1-2-2.6-2.7m-1.2 1c-.6-.5-1.4-.9-2.6-1.1" class="colorStrokef9f9f9 svgStroke"></path><path fill="#0031b5" fill-rule="evenodd" d="M222.7 190c-1.8-.8-2.6-2.2-2.4-4.2.2-1.9 2.7-2.8 7.5-2.4 1.9-1.4 4.7-1.8 8.3-1.4-3.1.9-5.6 2-7.4 3.3-1.9 1.3-3.9 2.9-6 4.7" clip-rule="evenodd" class="color00b58e svgShape"></path><path fill="none" stroke="#f9f9f9" stroke-width=".304" d="M223.5 189.2c-1.6-.9-2.3-2.1-2.3-3.6m2.3-1.4c0 1.6.4 2.6 1.4 3m1.2-3c-.1.7.2 1.3.9 1.6m1.2-1.1c-.1-.7.4-1.3 1.5-1.9" class="colorStrokef9f9f9 svgStroke"></path><path fill="#012995" fill-rule="evenodd" d="M230.3 193.2c-1.3-1.2-2.8-1.5-4.3-.8-2.3 1-2.5 5.3.9 9 2.3 2.5 4.6 4.9 7.1 7.3 1.8-6.1 2.8-10.3 3-12.5.3-3.4-.7-5-3-5.6-1.5-.6-2.7.3-3.7 2.6" clip-rule="evenodd" class="color019574 svgShape"></path><path fill="none" stroke="#f9f9f9" stroke-width=".304" d="m230.3 193 3.7 15.6m-3.5-14.7c-1.8-.4-3.3-.1-4.6.9m5.1 1.2c-2.4.7-3.6 2.2-3.6 4.4m3.3-1.6c-1 .9-1.3 2.3-.8 4.2m-4.1-5.2c.3-1.1 1.2-1.9 2.5-2.3m3.6 10.3c-.1-1.4.1-2.4.7-3.1m-1.9-8c1.2-2.1 2.9-3 5.2-2.6m-4 2.9c1.4-.6 2.8-.6 4.5.3m-4.2 2.5c1.2-.4 2.4-.1 3.6 1m-3 2.3c1.5.1 2.3.5 2.5 1.4" class="colorStrokef9f9f9 svgStroke"></path><path fill="#445175" fill-rule="evenodd" d="M215.1 210.5H228c.6 0 1.1.3 1.1.6 0 .4.3.7.9.9l.3.1c.5.2.9.6.9.9v9.1c0 .6-.9 1.2-2.1 1.2h-15c-1.2 0-2.1-.5-2.1-1.2V213c0-.4.3-.7.9-.9l.3-.1c.5-.2.8-.5.8-.9v-.1c0-.2.5-.5 1.1-.5" clip-rule="evenodd" class="color444975 svgShape"></path><g mask="url(#c)" fill="#000000" class="color000000 svgShape"><defs><path id="d" d="M211.5 210h6.3v14.3h-6.3z" fill="#000000" class="color000000 svgShape"></path></defs><clipPath id="e"><use overflow="visible" xlink:href="#d"></use></clipPath><path fill="#4f5d84" fill-rule="evenodd" d="M211.5 210h5.2c-2.3 5 3.3 9.1 0 14.3h-5.2V210z" clip-path="url(#e)" clip-rule="evenodd" class="color4f5584 svgShape"></path></g><g mask="url(#f)" opacity=".5" fill="#000000" class="color000000 svgShape"><defs><path id="g" d="M212 218.4h19.2v1.2H212z" fill="#000000" class="color000000 svgShape"></path></defs><clipPath id="h"><use overflow="visible" xlink:href="#g"></use></clipPath><path fill="#ffffff" fill-rule="evenodd" d="M212 218.4h19.2v1.2H212z" clip-path="url(#h)" clip-rule="evenodd" class="colorffffff svgShape"></path></g><g mask="url(#i)" opacity=".5" fill="#000000" class="color000000 svgShape"><defs><path id="j" d="M212 215.2h19.2v1.2H212z" fill="#000000" class="color000000 svgShape"></path></defs><clipPath id="k"><use overflow="visible" xlink:href="#j"></use></clipPath><path fill="#ffffff" fill-rule="evenodd" d="M212 215.2h19.2v1.2H212z" clip-path="url(#k)" clip-rule="evenodd" class="colorffffff svgShape"></path></g><path fill="#012995" fill-rule="evenodd" d="M229.6 189.7c-.4-2.3.2-3.9 1.5-4.6 2.1-1.2 4.3.8 5.5.8 1.2 0 4.2-.2 6.4 4.1-3.5-1-6.2-1.4-8.2-1.2-1.9.1-3.7.4-5.2.9" clip-rule="evenodd" class="color019574 svgShape"></path><path fill="none" stroke="#f9f9f9" stroke-width=".304" d="M229.8 189.5c.3-2.1 1.4-3.4 3.1-4m-.7 2.8c.5-1.2 1.4-1.9 2.8-2.2m-.6 1.8c1.1-.8 2.8-1.1 5.2-.8m-1.8 1.2c1.3-.3 2.6-.1 4 .3" class="colorStrokef9f9f9 svgStroke"></path><path fill="#0031b5" fill-rule="evenodd" d="M240.3 194.3c-1.7-.6-2.9-.5-3.7.5-1.2 1.5.5 4.6 3.2 6.3 1.8 1.1 3.7 3.1 5.5 6.1 1-3.6 1.2-7.2.7-10.7-.7-5.2-3.6-4.7-4.6-4.1-.7.4-1.1 1-1.1 1.9" clip-rule="evenodd" class="color00b58e svgShape"></path><path fill="none" stroke="#f9f9f9" stroke-width=".304" d="M240.3 194.3c3.1 4.4 4.8 8.7 5 12.9m-4.1-12c.7-1 1.8-1.5 3.3-1.5m-2.2 3.3c.8-.6 1.9-.5 3.2.2" class="colorStrokef9f9f9 svgStroke"></path><path fill="none" stroke="#f9f9f9" stroke-width=".304" d="M243.5 199.6c.8-.1 1.7.3 2.5 1.2m-1.7 1 1.7 1.2m-5.2-7.8c-1.8-.2-3 .4-3.6 2m4-1c-1.5.6-2.3 1.6-2.3 2.8m2.9-1.2c-.7.4-1 1.3-1 2.6m1.7-1-.2 3" class="colorStrokef9f9f9 svgStroke"></path></svg>