<svg xmlns="http://www.w3.org/2000/svg" viewBox="0 0 200 150" id="BusinessmanteachingaboutmobileUIUX"><g data-name="Layer 1" fill="#e8eefe" class="color000000 svgShape"><rect width="92.07" height="110.33" x="45.17" y="19.83" fill="#e8eefe" rx="2.66" class="colorffffff svgShape"></rect><path fill="#000c2c" d="M134.59,19.6H47.83a2.89,2.89,0,0,0-2.89,2.89v105a2.9,2.9,0,0,0,2.89,2.89h86.76a2.9,2.9,0,0,0,2.89-2.89v-105A2.89,2.89,0,0,0,134.59,19.6ZM137,127.5a2.43,2.43,0,0,1-2.42,2.42H47.83a2.43,2.43,0,0,1-2.42-2.42v-105a2.43,2.43,0,0,1,2.42-2.43h86.76A2.43,2.43,0,0,1,137,22.49Z" class="color00162c svgShape"></path><rect width="88.25" height="45.76" x="47.05" y="21.45" fill="#0046ff" class="colorffab00 svgShape"></rect><path fill="#000c2c" d="M46.82,67.44h88.72V21.22H46.82Zm.47-45.75h87.78V67H47.29Z" class="color00162c svgShape"></path><path fill="#0046ff" d="M110.93,42.52c-6.26-2.29-11.33-7.07-18.05-7.07C78.26,35.45,76.08,56,62,59.14c-4.93,1.1-10.26,1.63-14.94.48v7.59H135.3V38C131.58,42.11,122.41,46.7,110.93,42.52Z" opacity=".55" class="colorffab00 svgShape"></path><path fill="#e8eefe" d="M96.16,38.36H52.66a.23.23,0,0,0-.23.23V61.25a.23.23,0,0,0,.23.24h43.5a.24.24,0,0,0,.24-.24V38.59A.23.23,0,0,0,96.16,38.36ZM95.93,61h-43V38.82h43Z" class="colorffffff svgShape"></path><rect width="17.39" height="2.13" x="76.59" y="27.36" fill="#e8eefe" class="colorffffff svgShape"></rect><rect width="8.87" height="2.13" x="97.48" y="27.36" fill="#e8eefe" class="colorffffff svgShape"></rect><rect width="26.11" height="28.59" x="104.04" y="69.97" fill="#9cb7ff" class="colora39cff svgShape"></rect><rect width="39.79" height=".47" x="97.67" y="83.74" fill="#e8eefe" transform="rotate(-47.19 117.572 83.973)" class="colorffffff svgShape"></rect><rect width=".47" height="39.34" x="117.21" y="64.71" fill="#e8eefe" transform="rotate(-42.93 117.43 84.377)" class="colorffffff svgShape"></rect><rect width="26.11" height="28.59" x="52.51" y="99.85" fill="#9cb7ff" class="colora39cff svgShape"></rect><rect width="39.79" height=".47" x="45.72" y="113.49" fill="#e8eefe" transform="rotate(-47.29 65.601 113.725)" class="colorffffff svgShape"></rect><rect width=".47" height="39.34" x="65.26" y="94.46" fill="#e8eefe" transform="rotate(-42.93 65.491 114.123)" class="colorffffff svgShape"></rect><path fill="#0041ee" d="M56.42 20.07H52.2a.23.23 0 00-.24.23V129.66a.24.24 0 00.24.24h4.22a.23.23 0 00.23-.24V20.3A.23.23 0 0056.42 20.07zm-.24 109.36H52.43V20.53h3.75zM63.13 20.07H58.91a.23.23 0 00-.24.23V129.66a.24.24 0 00.24.24h4.22a.23.23 0 00.23-.24V20.3A.23.23 0 0063.13 20.07zm-.24 109.36H59.14V20.53h3.75zM69.84 20.07H65.62a.23.23 0 00-.24.23V129.66a.24.24 0 00.24.24h4.22a.23.23 0 00.23-.24V20.3A.23.23 0 0069.84 20.07zM69.6 129.43H65.85V20.53H69.6zM76.55 20.07H72.33a.23.23 0 00-.24.23V129.66a.24.24 0 00.24.24h4.22a.24.24 0 00.23-.24V20.3A.23.23 0 0076.55 20.07zm-.24 109.36H72.56V20.53h3.75zM83.26 20.07H79a.23.23 0 00-.24.23V129.66a.24.24 0 00.24.24h4.22a.24.24 0 00.23-.24V20.3A.23.23 0 0083.26 20.07zM83 129.43H79.27V20.53H83zM90 20.07H85.74a.23.23 0 00-.23.23V129.66a.24.24 0 00.23.24H90a.24.24 0 00.24-.24V20.3A.23.23 0 0090 20.07zm-.23 109.36H86V20.53h3.75zM96.67 20.07H92.45a.23.23 0 00-.23.23V129.66a.23.23 0 00.23.24h4.22a.24.24 0 00.24-.24V20.3A.23.23 0 0096.67 20.07zm-.23 109.36H92.69V20.53h3.75zM103.38 20.07H99.16a.23.23 0 00-.23.23V129.66a.23.23 0 00.23.24h4.22a.24.24 0 00.24-.24V20.3A.23.23 0 00103.38 20.07zm-.23 109.36H99.4V20.53h3.75zM110.09 20.07h-4.22a.23.23 0 00-.23.23V129.66a.23.23 0 00.23.24h4.22a.24.24 0 00.24-.24V20.3A.23.23 0 00110.09 20.07zm-.23 109.36h-3.75V20.53h3.75zM116.8 20.07h-4.22a.23.23 0 00-.23.23V129.66a.23.23 0 00.23.24h4.22a.24.24 0 00.24-.24V20.3A.23.23 0 00116.8 20.07zm-.23 109.36h-3.76V20.53h3.76zM123.51 20.07h-4.22a.23.23 0 00-.23.23V129.66a.23.23 0 00.23.24h4.22a.23.23 0 00.23-.24V20.3A.23.23 0 00123.51 20.07zm-.23 109.36h-3.76V20.53h3.76zM130.22 20.07H126a.23.23 0 00-.23.23V129.66a.23.23 0 00.23.24h4.22a.23.23 0 00.23-.24V20.3A.23.23 0 00130.22 20.07zM130 129.43h-3.76V20.53H130z" class="coloree005e svgShape"></path><path fill="#0e1527" d="M131.53,49.79a4.68,4.68,0,0,0,3.38-2.94s-1.15.51-7.57-1c-8.88-2.07-9.49,3-9.49,3-5.53-4-10.83,11-4.9,19.78,6.11,9.06,15.37,3.52,19.51.45s.18-5.44.23-7.62,2.94-2.85,3.2-7.58S131.53,49.79,131.53,49.79Z" class="color0e0e27 svgShape"></path><path fill="#0e1527" d="M132.77,49.59a4.89,4.89,0,0,0,2.37-2.67.24.24,0,0,0-.07-.24.23.23,0,0,0-.24,0s-1.44.4-7.44-1a17.34,17.34,0,0,0-3.87-.5c-4.39,0-5.54,2.45-5.82,3.38A3.25,3.25,0,0,0,116,48c-1.5,0-2.93,1.15-4,3.25-2.39,4.5-2.74,12.3.8,17.55,2.27,3.36,5.19,5.06,8.67,5.06s7.11-1.53,11.18-4.55c3-2.23,1.93-4.2,1.06-5.79a4.47,4.47,0,0,1-.74-2A3.72,3.72,0,0,1,134,59.34,8.66,8.66,0,0,0,136.13,54a4.18,4.18,0,0,0-1-3.24A3.91,3.91,0,0,0,132.77,49.59Zm.85,9.47a4.06,4.06,0,0,0-1.17,2.44,4.91,4.91,0,0,0,.8,2.26c.86,1.57,1.75,3.2-.93,5.18-3.93,2.92-7.7,4.47-10.9,4.47s-6.11-1.64-8.28-4.86c-3.45-5.11-3.1-12.69-.78-17.07,1-1.94,2.32-3,3.64-3a2.89,2.89,0,0,1,1.71.61.21.21,0,0,0,.23,0,.22.22,0,0,0,.14-.18s.46-3.32,5.44-3.32a16.54,16.54,0,0,1,3.77.49c4.54,1,6.47,1.11,7.24,1a4.51,4.51,0,0,1-3.06,2.41.23.23,0,0,0,.09.46,4.07,4.07,0,0,1,.43,0,3.91,3.91,0,0,1,2.83,1,3.75,3.75,0,0,1,.84,2.89A8.21,8.21,0,0,1,133.62,59.06Z" class="color0e0e27 svgShape"></path><path fill="#e8eefe" d="M111.41,61.91A4.7,4.7,0,0,0,113,66.57l.84-6.07S111.75,60.12,111.41,61.91Z" class="colorffffff svgShape"></path><path fill="#0e1527" d="M113.83,60.27a2.14,2.14,0,0,0-2.65,1.6,4.88,4.88,0,0,0,1.64,4.89.2.2,0,0,0,.13,0,.23.23,0,0,0,.19-.09.24.24,0,0,0,0-.33A4.45,4.45,0,0,1,111.64,62c.29-1.54,2-1.24,2.1-1.22a.23.23,0,0,0,.27-.19A.22.22,0,0,0,113.83,60.27Z" class="color0e0e27 svgShape"></path><path fill="#0046ff" d="M128.13,80.58c-4.33-2-12.25-2.17-14.94-.9-1.55.73-3.75,3.56-5.36,6.87-8.1,16.62-5.51,43.62-5.51,43.62h20.59s-.59-2.49-.35-13.31,6.32-19,7.65-24.55S132.46,82.58,128.13,80.58Z" class="color3700ff svgShape"></path><path fill="#000c2c" d="M128.23,80.37a24.8,24.8,0,0,0-9.59-1.73,14.45,14.45,0,0,0-5.55.83c-1.58.75-3.83,3.62-5.47,7-8,16.49-5.56,43.47-5.53,43.74a.23.23,0,0,0,.23.21h20.59a.25.25,0,0,0,.18-.08.24.24,0,0,0,0-.2s-.57-2.63-.34-13.25c.15-7.14,2.88-13.14,5.08-18a39.94,39.94,0,0,0,2.57-6.54C131.71,87.06,132.8,82.48,128.23,80.37ZM130,92.26a39.11,39.11,0,0,1-2.53,6.45c-2.22,4.86-5,10.92-5.13,18.15-.19,8.91.17,12.17.31,13.08h-20.1c-.21-2.57-2.09-27.69,5.51-43.28,1.59-3.28,3.76-6.06,5.25-6.77a14,14,0,0,1,5.35-.79A24.3,24.3,0,0,1,128,80.79C132.06,82.65,131.4,86.36,130,92.26Z" class="color00162c svgShape"></path><path fill="#e8eefe" d="M130.16,62.81l-.53,6.11a4.71,4.71,0,0,0,2.53-4.21C132.23,62.89,130.16,62.81,130.16,62.81Z" class="colorffffff svgShape"></path><path fill="#0e1527" d="M130.17,62.58a.25.25,0,0,0-.25.22.23.23,0,0,0,.23.24c.07,0,1.83.1,1.78,1.66a4.43,4.43,0,0,1-2.39,4,.24.24,0,0,0-.12.31.23.23,0,0,0,.21.14.16.16,0,0,0,.1,0,4.88,4.88,0,0,0,2.66-4.41A2.13,2.13,0,0,0,130.17,62.58Z" class="color0e0e27 svgShape"></path><path fill="#e8eefe" d="M125,75.27l-9-1.15a34,34,0,0,1-.34,5,5.7,5.7,0,0,0,3.4,1.64c2.38.26,6.33-1.14,6.33-1.14A16.86,16.86,0,0,1,125,75.27Z" class="colorffffff svgShape"></path><path fill="#0e1527" d="M125.26,75.28a.26.26,0,0,0-.21-.25l-9-1.14a.26.26,0,0,0-.19.06.23.23,0,0,0-.07.19,35.64,35.64,0,0,1-.34,5,.25.25,0,0,0,.07.2A6.07,6.07,0,0,0,119.08,81c.2,0,.42,0,.64,0a21.52,21.52,0,0,0,5.79-1.19.23.23,0,0,0,.15-.27A16.54,16.54,0,0,1,125.26,75.28Zm-6.13,5.26A5.47,5.47,0,0,1,116,79a36.05,36.05,0,0,0,.34-4.65l8.49,1.08a17.2,17.2,0,0,0,.38,4C124.34,79.75,121.13,80.75,119.13,80.54Z" class="color0e0e27 svgShape"></path><path fill="#e8eefe" d="M120.6,52.58s-5.27-1.5-6.48,4.14a94.2,94.2,0,0,0-1.43,9.83c-.18,2.52-.75,6.19.8,8,2.09,2.45,4.93,3.29,8.15,3.44.88-2.37,3.69-.81,5-2,2.65-2.4,2.74-6.81,3.24-9.39a45.8,45.8,0,0,0,.28-9.77C130,54.86,126.18,51.14,120.6,52.58Z" class="colorffffff svgShape"></path><path fill="#0e1527" d="M123.07,52a10.09,10.09,0,0,0-2.47.32,6.29,6.29,0,0,0-1.51-.17c-1.58,0-4.35.58-5.19,4.5a92,92,0,0,0-1.44,9.86c0,.33-.06.67-.09,1-.21,2.45-.47,5.49.94,7.15,1.9,2.22,4.54,3.34,8.32,3.51h0a.25.25,0,0,0,.22-.15c.46-1.24,1.47-1.28,2.63-1.32a3.5,3.5,0,0,0,2.36-.64c2.2-2,2.67-5.24,3-7.85.09-.6.17-1.17.27-1.66a46,46,0,0,0,.28-9.85C130.22,55.1,127.51,52,123.07,52Zm6.63,14.49c-.1.5-.18,1.08-.27,1.68-.37,2.54-.82,5.7-2.89,7.58a3.19,3.19,0,0,1-2.07.51c-1.12,0-2.39.09-3,1.47-3.54-.2-6-1.26-7.81-3.35-1.29-1.5-1-4.44-.83-6.8,0-.36.06-.71.08-1a96.55,96.55,0,0,1,1.43-9.8c.73-3.42,3-4.14,4.74-4.14a6.16,6.16,0,0,1,1.45.17.17.17,0,0,0,.12,0,9.62,9.62,0,0,1,2.41-.32c4.11,0,6.72,2.85,6.9,4.32A45.24,45.24,0,0,1,129.7,66.51Z" class="color0e0e27 svgShape"></path><path fill="#0e1527" d="M122.87,66.2a5.3,5.3,0,0,0-3.83-.83c-1.1.17-1.91.78-3.34.78a5.31,5.31,0,0,1-2.89-.79c-.06.46-.1.87-.12,1.19-.18,2.52-.75,6.19.8,8,2.09,2.45,4.93,3.29,8.15,3.44.88-2.37,3.69-.81,5-2,2.42-2.19,2.7-6.06,3.12-8.68a5.41,5.41,0,0,1-2.71.67A6.62,6.62,0,0,1,122.87,66.2Zm-.81,4.23a8,8,0,0,1-2.53-.33A10.13,10.13,0,0,1,117.21,69,1.13,1.13,0,1,1,118.35,67c.32.2.65.39,1,.56l.24.12.08,0,.47.17a4.1,4.1,0,0,0,.5.14l.25,0,.16,0h.13l.28,0h.61a1.13,1.13,0,0,1,1.13,1.12A1.15,1.15,0,0,1,122.06,70.43Z" class="color0e0e27 svgShape"></path><path fill="#0e1527" d="M129.69,67.06a5.23,5.23,0,0,1-2.59.64,6.16,6.16,0,0,1-3.91-1.55L123,66a5.63,5.63,0,0,0-4-.87,6.84,6.84,0,0,0-1.26.35,5.75,5.75,0,0,1-2,.43,5.09,5.09,0,0,1-2.77-.76.24.24,0,0,0-.22,0,.21.21,0,0,0-.13.18c-.06.47-.1.88-.12,1.2s-.06.67-.09,1c-.21,2.45-.47,5.49.94,7.15,1.9,2.22,4.54,3.34,8.32,3.51h0a.25.25,0,0,0,.22-.15c.46-1.24,1.47-1.28,2.63-1.32a3.5,3.5,0,0,0,2.36-.64c2.2-2,2.67-5.24,3.05-7.85,0-.33.09-.66.14-1a.23.23,0,0,0-.1-.23A.23.23,0,0,0,129.69,67.06Zm-.26,1.13c-.36,2.54-.82,5.7-2.89,7.58a3.19,3.19,0,0,1-2.07.51c-1.12,0-2.39.09-3,1.47-3.54-.2-6-1.26-7.81-3.35-1.29-1.5-1-4.44-.83-6.8,0-.36.06-.71.08-1s0-.52.08-.83a5.58,5.58,0,0,0,2.7.64,6,6,0,0,0,2.19-.45,8.29,8.29,0,0,1,1.18-.33,5.19,5.19,0,0,1,3.66.79l.19.14a6.54,6.54,0,0,0,4.18,1.64,5.74,5.74,0,0,0,2.41-.5C129.48,67.84,129.46,68,129.43,68.19Z" class="color0e0e27 svgShape"></path><path fill="#0e1527" d="M122.06,67.94h0q-.3,0-.6,0l-.26,0-.28,0-.24,0a4.27,4.27,0,0,1-.48-.13l-.28-.1-.24-.1-.24-.11c-.29-.15-.6-.32-1-.55a1.42,1.42,0,0,0-1.87.47,1.33,1.33,0,0,0-.16,1,1.47,1.47,0,0,0,.64.91,10.18,10.18,0,0,0,2.37,1.14,7.8,7.8,0,0,0,2.37.35h.24a1.38,1.38,0,0,0,1.35-1.35,1.3,1.3,0,0,0-.37-.94A1.37,1.37,0,0,0,122.06,67.94Zm0,2.26h-.23a7.24,7.24,0,0,1-2.23-.33,9.28,9.28,0,0,1-2.26-1.09,1,1,0,0,1-.43-.61.81.81,0,0,1,.1-.6,1,1,0,0,1,.8-.46.79.79,0,0,1,.42.12c.38.24.7.42,1,.58l.25.12.27.1.31.12.51.14.27,0,.14,0h.08l.1,0h.28c.21,0,.39,0,.65,0a.88.88,0,0,1,.62.29.79.79,0,0,1,.25.59A.93.93,0,0,1,122.06,70.2Z" class="color0e0e27 svgShape"></path><path fill="#0e1527" d="M121.75 68.9a5.47 5.47 0 01-3.57-1.8.24.24 0 00-.33 0 .23.23 0 000 .33 5.88 5.88 0 003.9 2h0a.24.24 0 100-.47zM129.1 60l-5.37-.63a1 1 0 00-.8.28 1 1 0 00-.28.69v1.32a2 2 0 001.78 2l3 .35.23 0a2 2 0 002-1.54l.31-1.29a1 1 0 00-.15-.78A1 1 0 00129.1 60zm.38 1.08l-.32 1.29a1.54 1.54 0 01-1.68 1.17l-3-.35a1.55 1.55 0 01-1.37-1.53V60.35a.51.51 0 01.14-.36.49.49 0 01.36-.15h.06l5.37.63a.47.47 0 01.35.21A.52.52 0 01129.48 61.09zM120.59 59l-5.37-.63a1 1 0 00-1.08 1v1.32a2 2 0 001.77 2l3 .35.24 0h0a2 2 0 002-1.54l.31-1.29a1 1 0 00-.14-.78A1 1 0 00120.59 59zm.38 1.08l-.31 1.29A1.55 1.55 0 01119 62.55l-3-.35a1.55 1.55 0 01-1.37-1.53V59.35a.48.48 0 01.15-.36.47.47 0 01.35-.15h.06l5.37.63a.47.47 0 01.35.21A.52.52 0 01121 60.09z" class="color0e0e27 svgShape"></path><path fill="#0e1527" d="M121.06 60a.23.23 0 00-.06.32.24.24 0 00.33.06 1 1 0 011.38.17.28.28 0 00.17.07.23.23 0 00.17-.39A1.5 1.5 0 00121.06 60zM120.35 56.63a6 6 0 00-3.71.27.23.23 0 00-.14.3.24.24 0 00.22.16l.07 0a5.6 5.6 0 013.4-.27.23.23 0 10.16-.44zM128 57.21a6 6 0 00-3.55-1.1.24.24 0 00.06.47 5.52 5.52 0 013.25 1 .19.19 0 00.12 0 .24.24 0 00.12-.44zM125.93 61.11a.55.55 0 10.55.54A.55.55 0 00125.93 61.11z" class="color0e0e27 svgShape"></path><path fill="#0e1527" d="M125.93,60.87a.78.78,0,1,0,.78.78A.78.78,0,0,0,125.93,60.87Zm0,1.1a.32.32,0,1,1,.31-.32A.31.31,0,0,1,125.93,62Z" class="color0e0e27 svgShape"></path><circle cx="117.84" cy="60.71" r=".55" fill="#0e1527" class="color0e0e27 svgShape"></circle><path fill="#0e1527" d="M117.84 59.93a.78.78 0 10.78.78A.78.78 0 00117.84 59.93zm0 1.09a.31.31 0 11.31-.31A.31.31 0 01117.84 61zM137.26 83.5a56.79 56.79 0 00-9.35-3.18s-1.24 3.48-2.86 6.8c-8.1 16.62-8.61 43-8.61 43H137s-.58-2.49-.35-13.31 6.32-19 7.66-24.55S141.58 85.5 137.26 83.5z" class="color0e0e27 svgShape"></path><path fill="#0e1527" d="M138.29,83.72l-.94-.43A57.8,57.8,0,0,0,128,80.1a.23.23,0,0,0-.28.15s-1.26,3.5-2.85,6.77c-8,16.47-8.63,42.88-8.63,43.15a.24.24,0,0,0,.23.23H137a.23.23,0,0,0,.18-.08.24.24,0,0,0,0-.2s-.57-2.63-.35-13.25c.16-7.14,2.89-13.14,5.09-18a39.79,39.79,0,0,0,2.56-6.54C145.82,87.13,142.16,85.47,138.29,83.72Zm5.82,8.54a39.26,39.26,0,0,1-2.54,6.45c-2.21,4.87-5,10.92-5.12,18.15-.19,8.91.16,12.17.3,13.08H116.68c.08-2.68,1-27.17,8.58-42.72,1.38-2.84,2.51-5.83,2.8-6.62a56.18,56.18,0,0,1,9.1,3.11l.93.43C142.1,86,145.27,87.39,144.11,92.26Z" class="color0e0e27 svgShape"></path><path fill="#e8eefe" d="M93.19,114.78l-5,5.23a2.92,2.92,0,0,0,1.88,3.35,22.16,22.16,0,0,0,3.74,1.22s-2.43-.36-3,.25c-.94,1,1,2.68,3.82,2.52s6.64-5.2,5.94-7.49S96.36,114.62,93.19,114.78Z" class="colorffffff svgShape"></path><path fill="#0e1527" d="M93.17,114.55a.23.23,0,0,0-.15.07l-5,5.23a.21.21,0,0,0-.06.1,3.17,3.17,0,0,0,2,3.63c.71.28,1.33.51,1.84.68a1.88,1.88,0,0,0-1.19.4,1.05,1.05,0,0,0-.21,1.19c.37.87,1.8,1.74,3.82,1.74h.39c1.84-.1,3.76-2,4.85-3.54s1.62-3.22,1.3-4.24C100,117.35,96.43,114.38,93.17,114.55Zm5.94,9.22c-1.11,1.6-2.93,3.25-4.48,3.34-1.91.11-3.43-.68-3.76-1.44A.57.57,0,0,1,91,125c.08-.09.37-.28,1.37-.28a11.72,11.72,0,0,1,1.43.1.23.23,0,0,0,.27-.19.24.24,0,0,0-.19-.27,22.19,22.19,0,0,1-3.7-1.21,2.66,2.66,0,0,1-1.75-3L93.29,115c2.95-.08,6.37,2.67,7.06,4.92C100.62,120.81,100.15,122.28,99.11,123.77Z" class="color0e0e27 svgShape"></path><path fill="#0e1527" d="M72.94,108.41c-.35,7.1,14.62,18.23,14.62,18.23S90.12,118,94.5,114.8a79.59,79.59,0,0,0-6.75-6.24s8.54-4.06,10-5.43l10.65-23.7a42.19,42.19,0,0,0-17,7C85.18,91.07,73.26,101.62,72.94,108.41Z" class="color0e0e27 svgShape"></path><path fill="#0e1527" d="M91.59,86.61c7.46-5.54,16.79-6.94,16.88-7l-.06-.46c-.1,0-9.54,1.43-17.09,7C85,90.9,73,101.54,72.7,108.4c-.34,7.14,14.11,18,14.72,18.42a.24.24,0,0,0,.14.05h.07a.24.24,0,0,0,.15-.16c0-.08,2.59-8.63,6.86-11.71a.22.22,0,0,0,.09-.17.21.21,0,0,0-.06-.18,86.55,86.55,0,0,0-6.48-6c1.63-.78,8.4-4.07,9.76-5.3l-.31-.35c-1.46,1.33-9.9,5.35-10,5.39a.23.23,0,0,0-.13.18.23.23,0,0,0,.09.21,77.88,77.88,0,0,1,6.54,6c-3.85,3-6.21,9.87-6.71,11.47-2-1.53-14.58-11.44-14.27-17.83C73.49,101.74,85.36,91.23,91.59,86.61Z" class="color0e0e27 svgShape"></path><path fill="#0e1527" d="M98.24,86.57c-3.13,9-4.85,43.6-4.85,43.6h13.47s.37-3.89.37-14.93c0-22.94,6.63-36,6.63-36S101.33,77.67,98.24,86.57Z" class="color0e0e27 svgShape"></path><path fill="#0e1527" d="M113.89,79.05a17.38,17.38,0,0,0-2.27-.12c-4.1,0-11.32,1-13.6,7.56-3.1,9-4.85,43.32-4.87,43.67a.23.23,0,0,0,.07.17.21.21,0,0,0,.17.07h13.47a.23.23,0,0,0,.23-.21s.38-4,.38-15c0-22.61,6.54-35.73,6.6-35.85a.23.23,0,0,0-.18-.34ZM107,115.24c0,9.51-.28,13.75-.35,14.69h-13c.17-3.12,1.89-34.79,4.83-43.28,2.19-6.31,9.18-7.25,13.16-7.25.85,0,1.52,0,1.89.08C112.53,81.58,107,94.41,107,115.24Z" class="color0e0e27 svgShape"></path><path fill="#0e1527" d="M113.89 79.05c-.12 0-12.76-1.54-15.87 7.44a.23.23 0 00.15.3.23.23 0 00.29-.14c2.72-7.83 13.08-7.34 15.05-7.17-1 2.1-6.51 14.93-6.51 35.76 0 10.08-.27 13.83-.35 14.69h-13c.1-2 .81-15.76 2.49-31.14a.23.23 0 00-.21-.25.21.21 0 00-.25.2c-1.81 16.56-2.5 31.27-2.51 31.42a.23.23 0 00.07.17.21.21 0 00.17.07h13.47a.23.23 0 00.23-.2s.38-3.23.38-15c0-22.61 6.54-35.73 6.6-35.85a.23.23 0 00-.18-.34zM122.23 64c0 .08.14.41 0 .57s-.31.13-.48.11l0 .47h.16a.85.85 0 00.74-.32 1.21 1.21 0 000-1z" class="color0e0e27 svgShape"></path><path fill="#e8eefe" d="M154.73,76.48a2.39,2.39,0,0,0-1.57-1.77c.07-1.53-1.57-1.65-1.57-1.65-1.65-2.78-3.75-.35-3.75-.35a71.14,71.14,0,0,0,.29-8.91,1,1,0,0,0-1.87-.34c-.43.91-1.56,10.53-1.56,10.53S144,76.36,142.26,75c-3.28-2.55-5.5-1.57-4.65-.84,2.87,2.49,1.88,3.9,4.4,5.81a9.31,9.31,0,0,1,2.91,2.87c.8,1.22-3.21,9.58-3.21,9.58l9.06,3.35s.74-9.56,2.65-12.27c1.06-1.5.31-3.94.31-3.94A3.19,3.19,0,0,0,154.73,76.48Z" class="colorffffff svgShape"></path><path fill="#0e1527" d="M155,76.42a2.63,2.63,0,0,0-1.56-1.88,1.8,1.8,0,0,0-1.66-1.7,2.41,2.41,0,0,0-2-1.35,2.73,2.73,0,0,0-1.6.63,65.66,65.66,0,0,0,.22-8.39,1.26,1.26,0,0,0-1.22-1,1.21,1.21,0,0,0-1.08.6c-.44.92-1.46,9.61-1.57,10.56,0,0-.43,1.28-1.24,1.28a1.4,1.4,0,0,1-.83-.34,7,7,0,0,0-4-1.71c-.63,0-1.09.21-1.21.55a.59.59,0,0,0,.23.68,8.09,8.09,0,0,1,2.28,3.08,6.32,6.32,0,0,0,2.13,2.73l.42.32A8.17,8.17,0,0,1,144.73,83c.53.82-1.7,6.18-3.23,9.36a.25.25,0,0,0,0,.19.25.25,0,0,0,.14.13L150.69,96h.08a.2.2,0,0,0,.13,0,.25.25,0,0,0,.11-.18c0-.09.75-9.52,2.6-12.15,1-1.37.53-3.43.39-4A3.37,3.37,0,0,0,155,76.42Zm-1.37,3a.23.23,0,0,0-.07.25s.7,2.35-.28,3.73c-1.75,2.49-2.52,10.39-2.66,12.08L142,92.33c.87-1.83,3.88-8.37,3.09-9.58a8.76,8.76,0,0,0-2.55-2.62l-.42-.31a5.81,5.81,0,0,1-2-2.56A8.56,8.56,0,0,0,137.76,74c-.06,0-.11-.12-.1-.17s.28-.24.78-.24a6.3,6.3,0,0,1,3.68,1.6,1.83,1.83,0,0,0,1.12.45c1.17,0,1.67-1.55,1.69-1.65.45-3.85,1.24-9.82,1.54-10.46a.76.76,0,0,1,.66-.33.77.77,0,0,1,.77.64,72.16,72.16,0,0,1-.29,8.81.22.22,0,0,0,.13.24.24.24,0,0,0,.28-.06,2.66,2.66,0,0,1,1.71-.9,2,2,0,0,1,1.65,1.22.25.25,0,0,0,.19.12c.06,0,1.41.12,1.36,1.39a.23.23,0,0,0,.17.24,2.16,2.16,0,0,1,1.4,1.61A2.9,2.9,0,0,1,153.58,79.42Z" class="color0e0e27 svgShape"></path><path fill="#0e1527" d="M150.3 84a.22.22 0 00-.28.16l-1.21 4.41a.24.24 0 00.17.29H149a.23.23 0 00.22-.17l1.21-4.42A.23.23 0 00150.3 84zM151.53 72.84a.23.23 0 00-.17.28 4.94 4.94 0 01-.15 2.83 2.54 2.54 0 01-2.77 1.46 1.67 1.67 0 01-1.27-1.85c0-.73.2-1.18.53-1.35.5-.25 1.32.16 1.59.35a.25.25 0 00.33-.06.24.24 0 00-.07-.33c-.05 0-1.21-.81-2.06-.37a1.84 1.84 0 00-.78 1.74 2.12 2.12 0 001.62 2.33 2.51 2.51 0 00.55.06 3.08 3.08 0 002.76-1.78 5.37 5.37 0 00.17-3.15A.22.22 0 00151.53 72.84z" class="color0e0e27 svgShape"></path><path fill="#0e1527" d="M153.13 74.47a.24.24 0 00-.2.27 4.82 4.82 0 01-.41 2.38 2.6 2.6 0 01-2.82 1.52 1 1 0 01-.85-1 .22.22 0 00-.22-.24.24.24 0 00-.24.23 1.42 1.42 0 001.21 1.43 2.35 2.35 0 00.54.06A3.15 3.15 0 00153 77.31a5.21 5.21 0 00.44-2.64A.24.24 0 00153.13 74.47zM153.56 79.45s-.47.6-1.25 0a.23.23 0 00-.27.37 1.59 1.59 0 00.93.35 1.26 1.26 0 001-.46.24.24 0 00-.37-.29z" class="color0e0e27 svgShape"></path><path fill="#e8eefe" d="M145.34,77.21,150.69,81C149.41,77.67,145.34,77.21,145.34,77.21Z" class="colorffffff svgShape"></path><path fill="#0e1527" d="M145.36 77a.24.24 0 00-.26.21.23.23 0 00.21.25s3.95.49 5.16 3.63a.22.22 0 00.22.15h.08a.25.25 0 00.14-.31C149.59 77.49 145.53 77 145.36 77zM139.2 100.41l-7.07 7.18c-1.55 14.71 6.29 19.3 12.38 14.82 9.62-7.07 9.76-28.57 9.76-28.57l-11.41-6.12z" class="color0e0e27 svgShape"></path><path fill="#0e1527" d="M154.38,93.64,143,87.52a.2.2,0,0,0-.2,0,.22.22,0,0,0-.13.15L139,100.34l.45.13L143,88.07,154,94c0,1.87-.64,21.61-9.66,28.25-2.46,1.8-5.17,2.1-7.43.8-3.66-2.1-5.38-7.86-4.58-15.41l-.47-.05c-.81,7.74,1,13.67,4.82,15.86a6.35,6.35,0,0,0,3.21.87,8,8,0,0,0,4.73-1.7c9.6-7.06,9.85-28.54,9.85-28.75A.22.22,0,0,0,154.38,93.64Z" class="color0e0e27 svgShape"></path><path fill="#e8eefe" d="M119.56,80.81a11.51,11.51,0,0,1,3,4c.55.2,5-3.46,5.35-4.49l-2.58-1.47A17.45,17.45,0,0,1,119.56,80.81Z" class="colorffffff svgShape"></path><path fill="#0e1527" d="M125.45,78.65a.25.25,0,0,0-.24,0,17.5,17.5,0,0,1-5.69,1.93.24.24,0,0,0-.19.17.24.24,0,0,0,.08.24,11.33,11.33,0,0,1,2.93,3.9.2.2,0,0,0,.14.14l.13,0c.87,0,5.16-3.61,5.52-4.65a.23.23,0,0,0-.1-.28Zm-2.74,5.91a11.34,11.34,0,0,0-2.63-3.6,17.61,17.61,0,0,0,5.25-1.84l2.28,1.3A18.89,18.89,0,0,1,122.71,84.56Z" class="color0e0e27 svgShape"></path><path fill="#e8eefe" d="M115.71,78.72a2.9,2.9,0,0,0-1.85.56,10.55,10.55,0,0,0,.13,4.78,22.62,22.62,0,0,1,4.4-3.34A6.33,6.33,0,0,1,115.71,78.72Z" class="colorffffff svgShape"></path><path fill="#0e1527" d="M118.45,80.5a6.28,6.28,0,0,1-2.56-1.92.23.23,0,0,0-.18-.09,3.08,3.08,0,0,0-2,.62.19.19,0,0,0-.07.11,10.64,10.64,0,0,0,.13,4.9.21.21,0,0,0,.17.16h0a.23.23,0,0,0,.18-.08,21.83,21.83,0,0,1,4.34-3.28.25.25,0,0,0,.11-.24A.24.24,0,0,0,118.45,80.5Zm-4.33,3.07a10,10,0,0,1-.05-4.16A2.81,2.81,0,0,1,115.6,79a7.1,7.1,0,0,0,2.25,1.82A23,23,0,0,0,114.12,83.57Z" class="color0e0e27 svgShape"></path><path fill="#e8eefe" d="M123.85,100a.87.87,0,0,0-.13,1.73.87.87,0,1,0,.13-1.73Z" class="colorffffff svgShape"></path><path fill="#000c2c" d="M123.87,99.72a1.1,1.1,0,1,0-.16,2.19h.08a1.1,1.1,0,0,0,1.09-1,1.1,1.1,0,0,0-1-1.18Zm-.08,1.73h-.05a.63.63,0,0,1-.58-.68.64.64,0,0,1,.67-.59h0a.67.67,0,0,1,.44.22.64.64,0,0,1-.48,1Z" class="color00162c svgShape"></path><path fill="#e8eefe" d="M121.57,112.72a.86.86,0,1,0-.13,1.72.86.86,0,1,0,.13-1.72Z" class="colorffffff svgShape"></path><path fill="#000c2c" d="M121.59,112.48a1.1,1.1,0,0,0-.17,2.2h.08a1.1,1.1,0,0,0,.84-1.82A1.12,1.12,0,0,0,121.59,112.48Zm-.09,1.73h0a.63.63,0,1,1,.09-1.26h0a.6.6,0,0,1,.43.22.59.59,0,0,1,.15.46A.63.63,0,0,1,121.5,114.21Z" class="color00162c svgShape"></path><path fill="#e8eefe" d="M120,125.56a.86.86,0,1,0,.8.93A.86.86,0,0,0,120,125.56Z" class="colorffffff svgShape"></path><path fill="#000c2c" d="M120,125.32a1.1,1.1,0,0,0-.17,2.2h.09a1.1,1.1,0,0,0,1.09-1,1.12,1.12,0,0,0-.26-.8A1.14,1.14,0,0,0,120,125.32Zm-.08,1.73h0a.64.64,0,0,1-.59-.68.65.65,0,0,1,.68-.58h0a.6.6,0,0,1,.43.22.65.65,0,0,1,.16.46A.64.64,0,0,1,119.89,127.05Z" class="color00162c svgShape"></path></g></svg>